<?xml version='1.0' encoding='utf-8'?>
<svg xmlns="http://www.w3.org/2000/svg" width="100%" height="100%" viewBox="0 0 4000 4000" version="1.1" style="fill-rule:evenodd;clip-rule:evenodd;stroke-linecap:round;stroke-linejoin:round;stroke-miterlimit:1.5;"><rect x="1971" y="699" width="63" height="1066.98"/><path d="M2369.57,752.13l-60.853,-16.305l-276.156,1030.63l60.853,16.306l276.156,-1030.63Z"/><path d="M2679.95,890.301l-54.56,-31.5l-533.491,924.035l54.559,31.5l533.492,-924.035Z"/><path d="M1696.1,734.535l-60.853,16.307l276.171,1030.62l60.853,-16.306l-276.171,-1030.62Z"/><path d="M1378.91,856.32l-54.558,31.501l533.519,924.019l54.559,-31.502l-533.52,-924.018Z"/><path d="M1104.05,1056.05l-44.546,44.55l754.506,754.437l44.545,-44.55l-754.505,-754.437Z"/><path d="M890.26,1320.12l-31.497,54.561l924.067,533.436l31.497,-54.561l-924.067,-533.436Z"/><path d="M752.103,1630.53l-16.301,60.854l1030.65,276.078l16.301,-60.854l-1030.65,-276.078Z"/><rect x="2000" y="260" width="5" height="240" style="stroke:#000;stroke-width:11.67px;"/><path d="M1045.58,1966.67l0.174,-4.997l-239.854,-8.376l-0.174,4.997l239.854,8.376Z" style="stroke:#000;stroke-width:11.67px;"/><path d="M1047.33,1933.39l0.349,-4.988l-239.416,-16.741l-0.348,4.988l239.415,16.741Z" style="stroke:#000;stroke-width:11.67px;"/><path d="M1050.23,1900.19l0.523,-4.972l-238.686,-25.087l-0.522,4.972l238.685,25.087Z" style="stroke:#000;stroke-width:11.67px;"/><path d="M1054.29,1867.11l0.696,-4.951l-237.665,-33.402l-0.696,4.951l237.665,33.402Z" style="stroke:#000;stroke-width:11.67px;"/><path d="M1059.51,1834.19l0.868,-4.925l-236.354,-41.675l-0.868,4.924l236.354,41.676Z" style="stroke:#000;stroke-width:11.67px;"/><path d="M1065.87,1801.47l1.04,-4.891l-234.756,-49.898l-1.039,4.89l234.755,49.899Z" style="stroke:#000;stroke-width:11.67px;"/><path d="M1045,2000.22l-0.001,-5l-240,0.056l0.001,5l240,-0.056Z" style="stroke:#000;stroke-width:11.67px;"/><path d="M1045.58,2033.33l-0.175,-4.997l-239.854,8.376l0.175,4.997l239.854,-8.376Z" style="stroke:#000;stroke-width:11.67px;"/><path d="M1047.33,2066.61l-0.349,-4.988l-239.415,16.742l0.349,4.987l239.415,-16.741Z" style="stroke:#000;stroke-width:11.67px;"/><path d="M1050.23,2099.81l-0.523,-4.973l-238.685,25.087l0.523,4.973l238.685,-25.087Z" style="stroke:#000;stroke-width:11.67px;"/><path d="M1054.29,2132.89l-0.696,-4.951l-237.664,33.401l0.695,4.952l237.665,-33.402Z" style="stroke:#000;stroke-width:11.67px;"/><path d="M1059.51,2165.81l-0.869,-4.924l-236.353,41.676l0.868,4.924l236.354,-41.676Z" style="stroke:#000;stroke-width:11.67px;"/><path d="M1065.87,2198.53l-1.039,-4.891l-234.756,49.899l1.04,4.891l234.755,-49.899Z" style="stroke:#000;stroke-width:11.67px;"/><path d="M1073.36,2231.01l-1.21,-4.851l-232.871,58.061l1.21,4.852l232.871,-58.062Z" style="stroke:#000;stroke-width:11.67px;"/><path d="M1081.99,2263.2l-1.378,-4.807l-230.703,66.153l1.378,4.806l230.703,-66.152Z" style="stroke:#000;stroke-width:11.67px;"/><path d="M1091.74,2295.07l-1.545,-4.755l-228.254,74.164l1.545,4.755l228.254,-74.164Z" style="stroke:#000;stroke-width:11.67px;"/><path d="M1114.53,2357.7l-1.873,-4.636l-222.524,89.906l1.873,4.635l222.524,-89.905Z" style="stroke:#000;stroke-width:11.67px;"/><path d="M1127.55,2388.38l-2.033,-4.568l-219.251,97.617l2.033,4.568l219.251,-97.617Z" style="stroke:#000;stroke-width:11.67px;"/><path d="M1141.64,2418.59l-2.192,-4.494l-215.71,105.209l2.192,4.494l215.71,-105.209Z" style="stroke:#000;stroke-width:11.67px;"/><path d="M1156.77,2448.29l-2.348,-4.415l-211.907,112.674l2.347,4.414l211.908,-112.673Z" style="stroke:#000;stroke-width:11.67px;"/><path d="M1172.93,2477.44l-2.5,-4.33l-207.846,120l2.5,4.33l207.846,-120Z" style="stroke:#000;stroke-width:11.67px;"/><path d="M1190.1,2506.01l-2.649,-4.24l-203.532,127.181l2.65,4.24l203.531,-127.181Z" style="stroke:#000;stroke-width:11.67px;"/><path d="M1208.25,2533.96l-2.796,-4.145l-198.969,134.206l2.796,4.145l198.969,-134.206Z" style="stroke:#000;stroke-width:11.67px;"/><path d="M1227.37,2561.26l-2.939,-4.045l-194.164,141.068l2.939,4.046l194.164,-141.069Z" style="stroke:#000;stroke-width:11.67px;"/><path d="M1247.42,2587.88l-3.078,-3.94l-189.122,147.759l3.078,3.94l189.122,-147.759Z" style="stroke:#000;stroke-width:11.67px;"/><path d="M1268.4,2613.78l-3.214,-3.831l-183.851,154.269l3.214,3.831l183.851,-154.269Z" style="stroke:#000;stroke-width:11.67px;"/><path d="M1290.27,2638.94l-3.346,-3.716l-178.355,160.591l3.346,3.716l178.355,-160.591Z" style="stroke:#000;stroke-width:11.67px;"/><path d="M1313,2663.31l-3.474,-3.597l-172.641,166.718l3.473,3.597l172.642,-166.718Z" style="stroke:#000;stroke-width:11.67px;"/><path d="M1336.56,2686.88l-3.596,-3.473l-166.718,172.642l3.596,3.473l166.718,-172.642Z" style="stroke:#000;stroke-width:11.67px;"/><path d="M1360.94,2709.61l-3.715,-3.345l-160.592,178.354l3.716,3.346l160.591,-178.355Z" style="stroke:#000;stroke-width:11.67px;"/><path d="M1386.09,2731.48l-3.831,-3.214l-154.269,183.85l3.831,3.214l154.269,-183.85Z" style="stroke:#000;stroke-width:11.67px;"/><path d="M1412,2752.45l-3.94,-3.079l-147.759,189.123l3.94,3.078l147.759,-189.122Z" style="stroke:#000;stroke-width:11.67px;"/><path d="M1438.61,2772.51l-4.045,-2.939l-141.069,194.164l4.046,2.939l141.068,-194.164Z" style="stroke:#000;stroke-width:11.67px;"/><path d="M1465.92,2791.63l-4.145,-2.796l-134.206,198.969l4.145,2.796l134.206,-198.969Z" style="stroke:#000;stroke-width:11.67px;"/><path d="M1493.87,2809.78l-4.24,-2.65l-127.181,203.532l4.24,2.649l127.181,-203.531Z" style="stroke:#000;stroke-width:11.67px;"/><path d="M1522.44,2826.95l-4.33,-2.5l-120,207.846l4.33,2.5l120,-207.846Z" style="stroke:#000;stroke-width:11.67px;"/><path d="M1551.59,2843.11l-4.415,-2.348l-112.673,211.908l4.415,2.347l112.673,-211.907Z" style="stroke:#000;stroke-width:11.67px;"/><path d="M1581.29,2858.24l-4.494,-2.192l-105.209,215.711l4.494,2.191l105.209,-215.71Z" style="stroke:#000;stroke-width:11.67px;"/><path d="M1611.49,2872.32l-4.568,-2.034l-97.617,219.251l4.568,2.034l97.617,-219.251Z" style="stroke:#000;stroke-width:11.67px;"/><path d="M1642.17,2885.35l-4.636,-1.873l-89.905,222.524l4.636,1.873l89.905,-222.524Z" style="stroke:#000;stroke-width:11.67px;"/><path d="M1673.29,2897.29l-4.698,-1.71l-82.085,225.526l4.698,1.71l82.085,-225.526Z" style="stroke:#000;stroke-width:11.67px;"/><path d="M1704.8,2908.14l-4.755,-1.545l-74.164,228.254l4.755,1.545l74.164,-228.254Z" style="stroke:#000;stroke-width:11.67px;"/><path d="M1736.68,2917.89l-4.807,-1.378l-66.153,230.702l4.807,1.379l66.153,-230.703Z" style="stroke:#000;stroke-width:11.67px;"/><path d="M1768.87,2926.51l-4.852,-1.209l-58.061,232.871l4.851,1.209l58.062,-232.871Z" style="stroke:#000;stroke-width:11.67px;"/><path d="M1801.35,2934.01l-4.891,-1.04l-49.898,234.756l4.89,1.039l49.899,-234.755Z" style="stroke:#000;stroke-width:11.67px;"/><path d="M1834.06,2940.37l-4.924,-0.868l-41.676,236.354l4.924,0.868l41.676,-236.354Z" style="stroke:#000;stroke-width:11.67px;"/><path d="M1866.98,2945.58l-4.951,-0.696l-33.402,237.665l4.951,0.696l33.402,-237.665Z" style="stroke:#000;stroke-width:11.67px;"/><path d="M1900.06,2949.64l-4.972,-0.522l-25.087,238.685l4.973,0.522l25.086,-238.685Z" style="stroke:#000;stroke-width:11.67px;"/><path d="M1933.27,2952.55l-4.988,-0.349l-16.741,239.416l4.988,0.348l16.741,-239.415Z" style="stroke:#000;stroke-width:11.67px;"/><path d="M1966.55,2954.29l-4.997,-0.174l-8.375,239.854l4.996,0.174l8.376,-239.854Z" style="stroke:#000;stroke-width:11.67px;"/><rect x="1994.88" y="2954.88" width="5" height="240" style="stroke:#000;stroke-width:11.67px;"/><path d="M2033.2,2954.29l-4.997,0.175l8.376,239.854l4.997,-0.175l-8.376,-239.854Z" style="stroke:#000;stroke-width:11.67px;"/><path d="M2066.49,2952.55l-4.988,0.349l16.742,239.415l4.987,-0.349l-16.741,-239.415Z" style="stroke:#000;stroke-width:11.67px;"/><path d="M2099.69,2949.64l-4.973,0.523l25.087,238.685l4.973,-0.523l-25.087,-238.685Z" style="stroke:#000;stroke-width:11.67px;"/><path d="M2132.77,2945.58l-4.951,0.696l33.401,237.664l4.952,-0.695l-33.402,-237.665Z" style="stroke:#000;stroke-width:11.67px;"/><path d="M2165.69,2940.37l-4.924,0.869l41.675,236.353l4.924,-0.868l-41.675,-236.354Z" style="stroke:#000;stroke-width:11.67px;"/><path d="M2198.41,2934.01l-4.891,1.039l49.899,234.756l4.891,-1.04l-49.899,-234.755Z" style="stroke:#000;stroke-width:11.67px;"/><path d="M2230.88,2926.51l-4.851,1.21l58.061,232.871l4.852,-1.21l-58.062,-232.871Z" style="stroke:#000;stroke-width:11.67px;"/><path d="M2263.08,2917.89l-4.807,1.378l66.153,230.703l4.807,-1.378l-66.153,-230.703Z" style="stroke:#000;stroke-width:11.67px;"/><path d="M2294.95,2908.14l-4.755,1.545l74.164,228.254l4.755,-1.545l-74.164,-228.254Z" style="stroke:#000;stroke-width:11.67px;"/><path d="M2326.46,2897.29l-4.699,1.71l82.085,225.526l4.699,-1.71l-82.085,-225.526Z" style="stroke:#000;stroke-width:11.67px;"/><path d="M2357.58,2885.35l-4.636,1.873l89.906,222.524l4.636,-1.873l-89.906,-222.524Z" style="stroke:#000;stroke-width:11.67px;"/><path d="M2388.26,2872.32l-4.568,2.033l97.617,219.251l4.568,-2.033l-97.617,-219.251Z" style="stroke:#000;stroke-width:11.67px;"/><path d="M2418.47,2858.24l-4.494,2.192l105.209,215.71l4.494,-2.192l-105.209,-215.71Z" style="stroke:#000;stroke-width:11.67px;"/><path d="M2448.16,2843.11l-4.415,2.347l112.674,211.907l4.414,-2.347l-112.673,-211.907Z" style="stroke:#000;stroke-width:11.67px;"/><path d="M2477.31,2826.95l-4.33,2.5l120,207.846l4.33,-2.5l-120,-207.846Z" style="stroke:#000;stroke-width:11.67px;"/><path d="M2505.88,2809.78l-4.24,2.649l127.181,203.532l4.24,-2.65l-127.181,-203.531Z" style="stroke:#000;stroke-width:11.67px;"/><path d="M2533.84,2791.63l-4.145,2.796l134.206,198.969l4.145,-2.796l-134.206,-198.969Z" style="stroke:#000;stroke-width:11.67px;"/><path d="M2561.14,2772.51l-4.045,2.939l141.069,194.164l4.045,-2.939l-141.069,-194.164Z" style="stroke:#000;stroke-width:11.67px;"/><path d="M2587.76,2752.45l-3.94,3.078l147.759,189.122l3.94,-3.078l-147.759,-189.122Z" style="stroke:#000;stroke-width:11.67px;"/><path d="M2613.66,2731.48l-3.831,3.213l154.269,183.851l3.831,-3.214l-154.269,-183.85Z" style="stroke:#000;stroke-width:11.67px;"/><path d="M2638.81,2709.61l-3.716,3.346l160.591,178.355l3.716,-3.346l-160.591,-178.355Z" style="stroke:#000;stroke-width:11.67px;"/><path d="M2663.19,2686.88l-3.597,3.474l166.718,172.641l3.597,-3.473l-166.718,-172.642Z" style="stroke:#000;stroke-width:11.67px;"/><path d="M2686.76,2663.31l-3.473,3.596l172.642,166.718l3.473,-3.596l-172.642,-166.718Z" style="stroke:#000;stroke-width:11.67px;"/><path d="M2709.49,2638.94l-3.345,3.716l178.354,160.591l3.346,-3.716l-178.355,-160.591Z" style="stroke:#000;stroke-width:11.67px;"/><path d="M2731.35,2613.78l-3.214,3.83l183.85,154.269l3.214,-3.83l-183.85,-154.269Z" style="stroke:#000;stroke-width:11.67px;"/><path d="M2752.33,2587.88l-3.079,3.94l189.123,147.759l3.078,-3.94l-189.122,-147.759Z" style="stroke:#000;stroke-width:11.67px;"/><path d="M2772.39,2561.26l-2.939,4.045l194.164,141.069l2.939,-4.045l-194.164,-141.069Z" style="stroke:#000;stroke-width:11.67px;"/><path d="M2791.5,2533.96l-2.796,4.145l198.969,134.206l2.796,-4.145l-198.969,-134.206Z" style="stroke:#000;stroke-width:11.67px;"/><path d="M2809.66,2506.01l-2.65,4.24l203.532,127.181l2.649,-4.24l-203.531,-127.181Z" style="stroke:#000;stroke-width:11.67px;"/><path d="M2826.82,2477.44l-2.5,4.33l207.846,120l2.5,-4.33l-207.846,-120Z" style="stroke:#000;stroke-width:11.67px;"/><path d="M2842.98,2448.29l-2.348,4.415l211.908,112.673l2.347,-4.415l-211.907,-112.673Z" style="stroke:#000;stroke-width:11.67px;"/><path d="M2858.11,2418.59l-2.192,4.494l215.711,105.209l2.192,-4.494l-215.711,-105.209Z" style="stroke:#000;stroke-width:11.67px;"/><path d="M2872.2,2388.38l-2.034,4.568l219.251,97.617l2.034,-4.568l-219.251,-97.617Z" style="stroke:#000;stroke-width:11.67px;"/><path d="M2885.22,2357.7l-1.873,4.636l222.524,89.905l1.873,-4.636l-222.524,-89.905Z" style="stroke:#000;stroke-width:11.67px;"/><path d="M2897.17,2326.59l-1.71,4.698l225.526,82.085l1.71,-4.698l-225.526,-82.085Z" style="stroke:#000;stroke-width:11.67px;"/><path d="M2908.02,2295.07l-1.545,4.755l228.254,74.164l1.545,-4.755l-228.254,-74.164Z" style="stroke:#000;stroke-width:11.67px;"/><path d="M2917.76,2263.2l-1.378,4.806l230.702,66.153l1.379,-4.807l-230.703,-66.152Z" style="stroke:#000;stroke-width:11.67px;"/><path d="M2926.39,2231.01l-1.209,4.852l232.871,58.061l1.209,-4.851l-232.871,-58.062Z" style="stroke:#000;stroke-width:11.67px;"/><path d="M2933.89,2198.53l-1.04,4.891l234.756,49.898l1.039,-4.89l-234.755,-49.899Z" style="stroke:#000;stroke-width:11.67px;"/><path d="M2940.24,2165.81l-0.868,4.925l236.354,41.675l0.868,-4.924l-236.354,-41.676Z" style="stroke:#000;stroke-width:11.67px;"/><path d="M2945.46,2132.89l-0.696,4.951l237.665,33.402l0.696,-4.951l-237.665,-33.402Z" style="stroke:#000;stroke-width:11.67px;"/><path d="M2949.52,2099.81l-0.522,4.972l238.685,25.087l0.522,-4.972l-238.685,-25.087Z" style="stroke:#000;stroke-width:11.67px;"/><path d="M2952.43,2066.61l-0.349,4.988l239.416,16.741l0.348,-4.988l-239.415,-16.741Z" style="stroke:#000;stroke-width:11.67px;"/><path d="M2954.17,2033.33l-0.174,4.997l239.854,8.376l0.174,-4.997l-239.854,-8.376Z" style="stroke:#000;stroke-width:11.67px;"/><path d="M2954.75,2000l0,5l240,0l0,-5l-240,0Z" style="stroke:#000;stroke-width:11.67px;"/><path d="M2954.17,1966.67l0.175,4.997l239.854,-8.376l-0.175,-4.997l-239.854,8.376Z" style="stroke:#000;stroke-width:11.67px;"/><path d="M2952.43,1933.39l0.349,4.988l239.415,-16.742l-0.349,-4.987l-239.415,16.741Z" style="stroke:#000;stroke-width:11.67px;"/><path d="M2949.52,1900.19l0.523,4.973l238.685,-25.087l-0.523,-4.973l-238.685,25.087Z" style="stroke:#000;stroke-width:11.67px;"/><path d="M2945.46,1867.11l0.696,4.951l237.665,-33.401l-0.696,-4.952l-237.665,33.402Z" style="stroke:#000;stroke-width:11.67px;"/><path d="M2940.24,1834.19l0.869,4.924l236.354,-41.676l-0.869,-4.924l-236.354,41.676Z" style="stroke:#000;stroke-width:11.67px;"/><path d="M2933.89,1801.47l1.039,4.891l234.756,-49.899l-1.04,-4.891l-234.755,49.899Z" style="stroke:#000;stroke-width:11.67px;"/><path d="M2926.39,1769l1.21,4.851l232.871,-58.061l-1.21,-4.852l-232.871,58.062Z" style="stroke:#000;stroke-width:11.67px;"/><path d="M2917.76,1736.8l1.378,4.807l230.703,-66.153l-1.378,-4.806l-230.703,66.152Z" style="stroke:#000;stroke-width:11.67px;"/><path d="M2908.02,1704.93l1.545,4.755l228.254,-74.164l-1.545,-4.755l-228.254,74.164Z" style="stroke:#000;stroke-width:11.67px;"/><path d="M2897.17,1673.41l1.71,4.699l225.526,-82.085l-1.71,-4.699l-225.526,82.085Z" style="stroke:#000;stroke-width:11.67px;"/><path d="M2885.22,1642.3l1.873,4.636l222.524,-89.906l-1.873,-4.635l-222.524,89.905Z" style="stroke:#000;stroke-width:11.67px;"/><path d="M2872.2,1611.62l2.033,4.568l219.251,-97.617l-2.033,-4.568l-219.251,97.617Z" style="stroke:#000;stroke-width:11.67px;"/><path d="M2858.11,1581.41l2.192,4.494l215.71,-105.209l-2.191,-4.494l-215.711,105.209Z" style="stroke:#000;stroke-width:11.67px;"/><path d="M2842.98,1551.71l2.347,4.415l211.907,-112.674l-2.347,-4.414l-211.907,112.673Z" style="stroke:#000;stroke-width:11.67px;"/><path d="M2826.82,1522.56l2.5,4.33l207.846,-120l-2.5,-4.33l-207.846,120Z" style="stroke:#000;stroke-width:11.67px;"/><path d="M2809.66,1493.99l2.649,4.24l203.532,-127.181l-2.65,-4.24l-203.531,127.181Z" style="stroke:#000;stroke-width:11.67px;"/><path d="M2791.5,1466.04l2.796,4.145l198.969,-134.206l-2.796,-4.145l-198.969,134.206Z" style="stroke:#000;stroke-width:11.67px;"/><path d="M2772.39,1438.74l2.939,4.045l194.164,-141.068l-2.939,-4.046l-194.164,141.069Z" style="stroke:#000;stroke-width:11.67px;"/><path d="M2752.33,1412.12l3.078,3.94l189.123,-147.759l-3.079,-3.94l-189.122,147.759Z" style="stroke:#000;stroke-width:11.67px;"/><path d="M2731.35,1386.22l3.214,3.831l183.85,-154.269l-3.214,-3.831l-183.85,154.269Z" style="stroke:#000;stroke-width:11.67px;"/><path d="M2709.49,1361.06l3.346,3.716l178.355,-160.591l-3.346,-3.716l-178.355,160.591Z" style="stroke:#000;stroke-width:11.67px;"/><path d="M2686.76,1336.69l3.474,3.597l172.641,-166.718l-3.473,-3.597l-172.642,166.718Z" style="stroke:#000;stroke-width:11.67px;"/><path d="M2663.19,1313.12l3.596,3.473l166.718,-172.642l-3.596,-3.473l-166.718,172.642Z" style="stroke:#000;stroke-width:11.67px;"/><path d="M2638.81,1290.39l3.716,3.345l160.591,-178.354l-3.716,-3.346l-160.591,178.355Z" style="stroke:#000;stroke-width:11.67px;"/><path d="M2613.66,1268.52l3.83,3.214l154.269,-183.85l-3.83,-3.214l-154.269,183.85Z" style="stroke:#000;stroke-width:11.67px;"/><path d="M2587.76,1247.55l3.941,3.079l147.758,-189.123l-3.94,-3.078l-147.759,189.122Z" style="stroke:#000;stroke-width:11.67px;"/><path d="M2561.14,1227.49l4.045,2.939l141.069,-194.164l-4.045,-2.939l-141.069,194.164Z" style="stroke:#000;stroke-width:11.67px;"/><path d="M2533.84,1208.37l4.145,2.796l134.206,-198.969l-4.145,-2.796l-134.206,198.969Z" style="stroke:#000;stroke-width:11.67px;"/><path d="M1102.59,2326.59l-1.71,-4.699l-225.526,82.085l1.71,4.699l225.526,-82.085Z" style="stroke:#000;stroke-width:11.67px;"/><path d="M1959.45,260.596l-4.998,0.131l6.282,239.918l4.999,-0.131l-6.283,-239.918Z" style="stroke:#000;stroke-width:11.67px;"/><path d="M1913.93,262.385l-4.993,0.261l12.561,239.671l4.993,-0.261l-12.561,-239.671Z" style="stroke:#000;stroke-width:11.67px;"/><path d="M1868.48,265.364l-4.984,0.392l18.83,239.26l4.984,-0.392l-18.83,-239.26Z" style="stroke:#000;stroke-width:11.67px;"/><path d="M1823.12,269.532l-4.972,0.523l25.087,238.685l4.972,-0.523l-25.087,-238.685Z" style="stroke:#000;stroke-width:11.67px;"/><path d="M1777.88,274.886l-4.957,0.653l31.326,237.946l4.958,-0.652l-31.327,-237.947Z" style="stroke:#000;stroke-width:11.67px;"/><path d="M1732.8,281.422l-4.938,0.782l37.544,237.046l4.938,-0.783l-37.544,-237.045Z" style="stroke:#000;stroke-width:11.67px;"/><path d="M1687.91,289.136l-4.916,0.912l43.736,235.981l4.917,-0.911l-43.737,-235.982Z" style="stroke:#000;stroke-width:11.67px;"/><path d="M1643.23,298.023l-4.891,1.04l49.899,234.755l4.89,-1.039l-49.898,-234.756Z" style="stroke:#000;stroke-width:11.67px;"/><path d="M1598.81,308.076l-4.862,1.168l56.027,233.368l4.862,-1.167l-56.027,-233.369Z" style="stroke:#000;stroke-width:11.67px;"/><path d="M1554.65,319.289l-4.83,1.294l62.117,231.822l4.829,-1.294l-62.116,-231.822Z" style="stroke:#000;stroke-width:11.67px;"/><path d="M1510.81,331.654l-4.794,1.42l68.164,230.116l4.794,-1.42l-68.164,-230.116Z" style="stroke:#000;stroke-width:11.67px;"/><path d="M1467.31,345.162l-4.755,1.545l74.164,228.253l4.756,-1.545l-74.165,-228.253Z" style="stroke:#000;stroke-width:11.67px;"/><path d="M1424.18,359.804l-4.713,1.669l80.114,226.234l4.713,-1.669l-80.114,-226.234Z" style="stroke:#000;stroke-width:11.67px;"/><path d="M1381.44,375.57l-4.668,1.792l86.008,224.059l4.668,-1.792l-86.008,-224.059Z" style="stroke:#000;stroke-width:11.67px;"/><path d="M1339.13,392.45l-4.62,1.913l91.844,221.731l4.62,-1.913l-91.844,-221.731Z" style="stroke:#000;stroke-width:11.67px;"/><path d="M1297.28,410.431l-4.567,2.034l97.616,219.25l4.568,-2.033l-97.617,-219.251Z" style="stroke:#000;stroke-width:11.67px;"/><path d="M1255.91,429.502l-4.513,2.152l103.322,216.621l4.513,-2.153l-103.322,-216.62Z" style="stroke:#000;stroke-width:11.67px;"/><path d="M1215.06,449.649l-4.456,2.27l108.958,213.841l4.455,-2.27l-108.957,-213.841Z" style="stroke:#000;stroke-width:11.67px;"/><path d="M1174.74,470.858l-4.394,2.386l114.518,210.916l4.394,-2.386l-114.518,-210.916Z" style="stroke:#000;stroke-width:11.67px;"/><path d="M1135,493.116l-4.33,2.5l120,207.846l4.33,-2.5l-120,-207.846Z" style="stroke:#000;stroke-width:11.67px;"/><path d="M1095.85,516.406l-4.263,2.613l125.4,204.633l4.263,-2.612l-125.4,-204.634Z" style="stroke:#000;stroke-width:11.67px;"/><path d="M1057.33,540.713l-4.193,2.723l130.713,201.281l4.193,-2.723l-130.713,-201.281Z" style="stroke:#000;stroke-width:11.67px;"/><path d="M1019.45,566.02l-4.12,2.832l135.937,197.791l4.121,-2.832l-135.938,-197.791Z" style="stroke:#000;stroke-width:11.67px;"/><path d="M982.254,592.31l-4.045,2.939l141.068,194.164l4.045,-2.938l-141.068,-194.165Z" style="stroke:#000;stroke-width:11.67px;"/><path d="M945.755,619.565l-3.967,3.044l146.103,190.405l3.967,-3.044l-146.103,-190.405Z" style="stroke:#000;stroke-width:11.67px;"/><path d="M909.983,647.766l-3.886,3.147l151.037,186.515l3.885,-3.147l-151.036,-186.515Z" style="stroke:#000;stroke-width:11.67px;"/><path d="M874.96,676.894l-3.802,3.247l155.868,182.497l3.802,-3.247l-155.868,-182.497Z" style="stroke:#000;stroke-width:11.67px;"/><path d="M840.713,706.928l-3.716,3.346l160.591,178.354l3.716,-3.345l-160.591,-178.355Z" style="stroke:#000;stroke-width:11.67px;"/><path d="M807.263,737.849l-3.627,3.441l165.205,174.09l3.627,-3.442l-165.205,-174.089Z" style="stroke:#000;stroke-width:11.67px;"/><path d="M774.634,769.634l-3.535,3.536l169.705,169.705l3.536,-3.535l-169.706,-169.706Z" style="stroke:#000;stroke-width:11.67px;"/><path d="M742.849,802.263l-3.442,3.627l174.09,165.205l3.441,-3.627l-174.089,-165.205Z" style="stroke:#000;stroke-width:11.67px;"/><path d="M711.928,835.713l-3.346,3.715l178.355,160.592l3.346,-3.716l-178.355,-160.591Z" style="stroke:#000;stroke-width:11.67px;"/><path d="M681.894,869.96l-3.248,3.802l182.498,155.868l3.247,-3.802l-182.497,-155.868Z" style="stroke:#000;stroke-width:11.67px;"/><path d="M652.766,904.983l-3.147,3.885l186.515,151.037l3.147,-3.886l-186.515,-151.036Z" style="stroke:#000;stroke-width:11.67px;"/><path d="M624.565,940.755l-3.044,3.967l190.405,146.103l3.044,-3.967l-190.405,-146.103Z" style="stroke:#000;stroke-width:11.67px;"/><path d="M597.31,977.254l-2.938,4.045l194.164,141.068l2.939,-4.045l-194.165,-141.068Z" style="stroke:#000;stroke-width:11.67px;"/><path d="M571.02,1014.45l-2.832,4.121l197.791,135.937l2.832,-4.12l-197.791,-135.938Z" style="stroke:#000;stroke-width:11.67px;"/><path d="M545.713,1052.33l-2.723,4.193l201.281,130.714l2.723,-4.194l-201.281,-130.713Z" style="stroke:#000;stroke-width:11.67px;"/><path d="M521.406,1090.85l-2.612,4.264l204.633,125.399l2.613,-4.263l-204.634,-125.4Z" style="stroke:#000;stroke-width:11.67px;"/><path d="M498.116,1130l-2.5,4.33l207.846,120l2.5,-4.33l-207.846,-120Z" style="stroke:#000;stroke-width:11.67px;"/><path d="M475.858,1169.74l-2.386,4.394l210.917,114.518l2.385,-4.394l-210.916,-114.518Z" style="stroke:#000;stroke-width:11.67px;"/><path d="M454.649,1210.06l-2.27,4.455l213.841,108.957l2.27,-4.455l-213.841,-108.957Z" style="stroke:#000;stroke-width:11.67px;"/><path d="M434.502,1250.91l-2.153,4.513l216.621,103.322l2.152,-4.513l-216.62,-103.322Z" style="stroke:#000;stroke-width:11.67px;"/><path d="M415.431,1292.28l-2.034,4.568l219.251,97.617l2.034,-4.568l-219.251,-97.617Z" style="stroke:#000;stroke-width:11.67px;"/><path d="M397.45,1334.13l-1.914,4.619l221.731,91.844l1.914,-4.619l-221.731,-91.844Z" style="stroke:#000;stroke-width:11.67px;"/><path d="M380.57,1376.44l-1.792,4.668l224.06,86.008l1.791,-4.668l-224.059,-86.008Z" style="stroke:#000;stroke-width:11.67px;"/><path d="M364.804,1419.18l-1.669,4.713l226.234,80.114l1.669,-4.713l-226.234,-80.114Z" style="stroke:#000;stroke-width:11.67px;"/><path d="M350.162,1462.31l-1.545,4.756l228.253,74.164l1.545,-4.755l-228.253,-74.165Z" style="stroke:#000;stroke-width:11.67px;"/><path d="M336.654,1505.81l-1.42,4.794l230.116,68.164l1.42,-4.794l-230.116,-68.164Z" style="stroke:#000;stroke-width:11.67px;"/><path d="M324.289,1549.65l-1.294,4.829l231.822,62.117l1.294,-4.83l-231.822,-62.116Z" style="stroke:#000;stroke-width:11.67px;"/><path d="M313.076,1593.81l-1.167,4.862l233.369,56.027l1.167,-4.862l-233.369,-56.027Z" style="stroke:#000;stroke-width:11.67px;"/><path d="M303.023,1638.23l-1.039,4.89l234.755,49.899l1.04,-4.891l-234.756,-49.898Z" style="stroke:#000;stroke-width:11.67px;"/><path d="M294.136,1682.91l-0.911,4.916l235.981,43.737l0.912,-4.916l-235.982,-43.737Z" style="stroke:#000;stroke-width:11.67px;"/><path d="M286.422,1727.8l-0.782,4.938l237.045,37.545l0.782,-4.939l-237.045,-37.544Z" style="stroke:#000;stroke-width:11.67px;"/><path d="M279.886,1772.88l-0.653,4.958l237.947,31.326l0.653,-4.957l-237.947,-31.327Z" style="stroke:#000;stroke-width:11.67px;"/><path d="M274.532,1818.12l-0.523,4.973l238.686,25.087l0.522,-4.973l-238.685,-25.087Z" style="stroke:#000;stroke-width:11.67px;"/><path d="M270.364,1863.48l-0.392,4.985l239.26,18.83l0.392,-4.985l-239.26,-18.83Z" style="stroke:#000;stroke-width:11.67px;"/><path d="M267.385,1908.93l-0.262,4.994l239.671,12.56l0.262,-4.993l-239.671,-12.561Z" style="stroke:#000;stroke-width:11.67px;"/><path d="M265.596,1954.45l-0.131,4.998l239.918,6.283l0.131,-4.998l-239.918,-6.283Z" style="stroke:#000;stroke-width:11.67px;"/><path d="M265,2000l0,5l240,-0l0,-5l-240,-0Z" style="stroke:#000;stroke-width:11.67px;"/><path d="M2173.51,214.41c-115.399,-11.213 -231.613,-11.213 -347.012,-0l-26.076,54.387c-169.988,19.597 -336.164,64.124 -493.176,132.146l-49.777,-34.062c-105.545,47.988 -206.189,106.095 -300.52,173.505l4.61,60.139c-137.415,101.966 -259.064,223.615 -361.03,361.03l-60.139,-4.61c-67.41,94.331 -125.517,194.975 -173.505,300.52l34.062,49.777c-68.022,157.012 -112.549,323.188 -132.146,493.176l-54.387,26.076c-11.213,115.399 -11.213,231.613 -0,347.012l54.387,26.076c19.597,169.988 64.124,336.164 132.146,493.176l-34.062,49.777c47.988,105.545 106.095,206.189 173.505,300.52l60.139,-4.61c101.966,137.415 223.615,259.064 361.03,361.03l-4.61,60.139c94.331,67.41 194.975,125.517 300.52,173.505l49.777,-34.062c157.012,68.022 323.188,112.549 493.176,132.146l26.076,54.387c115.399,11.213 231.613,11.213 347.012,0l26.076,-54.387c169.988,-19.597 336.164,-64.124 493.176,-132.146l49.777,34.062c105.545,-47.988 206.189,-106.095 300.52,-173.505l-4.61,-60.139c137.415,-101.966 259.064,-223.615 361.03,-361.03l60.139,4.61c67.41,-94.331 125.517,-194.975 173.505,-300.52l-34.062,-49.777c68.022,-157.012 112.549,-323.188 132.146,-493.176l54.387,-26.076c11.213,-115.399 11.213,-231.613 0,-347.012l-54.387,-26.076c-19.597,-169.988 -64.124,-336.164 -132.146,-493.176l34.062,-49.777c-47.988,-105.545 -106.095,-206.189 -173.505,-300.52l-60.139,4.61c-101.966,-137.415 -223.615,-259.064 -361.03,-361.03l4.61,-60.139c-94.331,-67.41 -194.975,-125.517 -300.52,-173.505l-49.777,34.062c-157.012,-68.022 -323.188,-112.549 -493.176,-132.146l-26.076,-54.387Zm-173.506,66.021c949.056,-0 1719.57,770.513 1719.57,1719.57c0,949.056 -770.513,1719.57 -1719.57,1719.57c-949.056,0 -1719.57,-770.513 -1719.57,-1719.57c-0,-949.056 770.513,-1719.57 1719.57,-1719.57Z" style="stroke:#000;stroke-width:11.67px;"/><path d="M2131.43,647.371c-87.418,-8.495 -175.452,-8.495 -262.87,-0l-19.753,41.199c-128.771,14.846 -254.653,48.576 -373.594,100.104l-37.707,-25.803c-79.953,36.353 -156.193,80.37 -227.652,131.435l3.493,45.557c-104.096,77.241 -196.248,169.393 -273.489,273.489l-45.557,-3.493c-51.065,71.459 -95.082,147.699 -131.435,227.652l25.803,37.707c-51.528,118.941 -85.258,244.823 -100.104,373.594l-41.199,19.753c-8.495,87.418 -8.495,175.452 -0,262.87l41.199,19.753c14.846,128.771 48.576,254.653 100.104,373.594l-25.803,37.707c36.353,79.953 80.37,156.193 131.435,227.652l45.557,-3.493c77.241,104.096 169.393,196.248 273.489,273.489l-3.493,45.557c71.459,51.065 147.699,95.082 227.652,131.435l37.707,-25.803c118.941,51.528 244.823,85.258 373.594,100.104l19.753,41.199c87.418,8.495 175.452,8.495 262.87,0l19.753,-41.199c128.771,-14.846 254.653,-48.576 373.594,-100.104l37.707,25.803c79.953,-36.353 156.193,-80.37 227.652,-131.435l-3.493,-45.557c104.096,-77.241 196.248,-169.393 273.489,-273.489l45.557,3.493c51.065,-71.459 95.082,-147.699 131.435,-227.652l-25.803,-37.707c51.528,-118.941 85.258,-244.823 100.104,-373.594l41.199,-19.753c8.495,-87.418 8.495,-175.452 0,-262.87l-41.199,-19.753c-14.846,-128.771 -48.576,-254.653 -100.104,-373.594l25.803,-37.707c-36.353,-79.953 -80.37,-156.193 -131.435,-227.652l-45.557,3.493c-77.241,-104.096 -169.393,-196.248 -273.489,-273.489l3.493,-45.557c-71.459,-51.065 -147.699,-95.082 -227.652,-131.435l-37.707,25.803c-118.941,-51.528 -244.823,-85.258 -373.594,-100.104l-19.753,-41.199Zm-131.435,50.012c718.934,0 1302.62,583.683 1302.62,1302.62c-0,718.934 -583.683,1302.62 -1302.62,1302.62c-718.934,-0 -1302.62,-583.683 -1302.62,-1302.62c0,-718.934 583.683,-1302.62 1302.62,-1302.62Z" style="stroke:#000;stroke-width:11.67px;"/><path d="M2024.57,1747.19c-16.338,-1.588 -32.792,-1.588 -49.13,-0l-4.525,0.48c-24.776,2.857 -48.997,9.347 -71.882,19.261l-4.158,1.846c-14.944,6.794 -29.193,15.021 -42.549,24.565l-3.678,2.679c-20.029,14.862 -37.759,32.592 -52.621,52.621l-2.679,3.678c-9.544,13.356 -17.771,27.605 -24.565,42.549l-1.846,4.158c-9.914,22.885 -16.404,47.106 -19.261,71.882l-0.48,4.525c-1.588,16.338 -1.588,32.792 -0,49.13l0.48,4.525c2.857,24.776 9.347,48.997 19.261,71.882l1.846,4.158c6.794,14.944 15.021,29.193 24.565,42.549l2.679,3.678c14.862,20.029 32.592,37.759 52.621,52.621l3.678,2.679c13.356,9.544 27.605,17.771 42.549,24.565l4.158,1.846c22.885,9.914 47.106,16.404 71.882,19.261l4.525,0.48c16.338,1.588 32.792,1.588 49.13,0l4.525,-0.48c24.776,-2.857 48.997,-9.347 71.882,-19.261l4.158,-1.846c14.944,-6.794 29.193,-15.021 42.549,-24.565l3.678,-2.679c20.029,-14.862 37.759,-32.592 52.621,-52.621l2.679,-3.678c9.544,-13.356 17.771,-27.605 24.565,-42.549l1.846,-4.158c9.914,-22.885 16.404,-47.106 19.261,-71.882l0.48,-4.525c1.588,-16.338 1.588,-32.792 0,-49.13l-0.48,-4.525c-2.857,-24.776 -9.347,-48.997 -19.261,-71.882l-1.846,-4.158c-6.794,-14.944 -15.021,-29.193 -24.565,-42.549l-2.679,-3.678c-14.862,-20.029 -32.592,-37.759 -52.621,-52.621l-3.678,-2.679c-13.356,-9.544 -27.605,-17.771 -42.549,-24.565l-4.158,-1.846c-22.885,-9.914 -47.106,-16.404 -71.882,-19.261l-4.525,-0.48Zm-24.565,27.26c124.484,-0 225.549,101.065 225.549,225.549c0,124.484 -101.065,225.549 -225.549,225.549c-124.484,0 -225.549,-101.065 -225.549,-225.549c-0,-124.484 101.065,-225.549 225.549,-225.549Z" style="stroke:#000;stroke-width:11.67px;"/><rect x="1998" y="74" width="2" height="96" style="stroke:#000;stroke-width:11.67px;"/><path d="M2031.85,74.28l2,0.035l-1.687,95.985l-2,-0.035l1.687,-95.985Z" style="stroke:#000;stroke-width:11.67px;"/><path d="M2065.7,75.155l1.999,0.07l-3.375,95.941l-1.998,-0.07l3.374,-95.941Z" style="stroke:#000;stroke-width:11.67px;"/><path d="M2099.52,76.624l1.997,0.106l-5.06,95.866l-1.997,-0.105l5.06,-95.867Z" style="stroke:#000;stroke-width:11.67px;"/><path d="M2133.31,78.688l1.995,0.141l-6.744,95.763l-1.995,-0.141l6.744,-95.763Z" style="stroke:#000;stroke-width:11.67px;"/><path d="M2167.06,81.346l1.993,0.175l-8.427,95.63l-1.992,-0.176l8.426,-95.629Z" style="stroke:#000;stroke-width:11.67px;"/><path d="M2200.75,84.596l1.989,0.211l-10.106,95.466l-1.989,-0.21l10.106,-95.467Z" style="stroke:#000;stroke-width:11.67px;"/><path d="M2234.39,88.438l1.984,0.245l-11.782,95.275l-1.985,-0.246l11.783,-95.274Z" style="stroke:#000;stroke-width:11.67px;"/><path d="M2267.95,92.871l1.98,0.28l-13.455,95.052l-1.98,-0.28l13.455,-95.052Z" style="stroke:#000;stroke-width:11.67px;"/><path d="M2301.43,97.892l1.975,0.316l-15.124,94.801l-1.975,-0.315l15.124,-94.802Z" style="stroke:#000;stroke-width:11.67px;"/><path d="M2334.82,103.502l1.969,0.35l-16.788,94.52l-1.969,-0.349l16.788,-94.521Z" style="stroke:#000;stroke-width:11.67px;"/><path d="M2368.1,109.697l1.963,0.385l-18.446,94.211l-1.963,-0.385l18.446,-94.211Z" style="stroke:#000;stroke-width:11.67px;"/><path d="M2401.26,116.477l1.956,0.419l-20.099,93.872l-1.956,-0.419l20.099,-93.872Z" style="stroke:#000;stroke-width:11.67px;"/><path d="M2434.31,123.838l1.948,0.453l-21.746,93.505l-1.948,-0.453l21.746,-93.505Z" style="stroke:#000;stroke-width:11.67px;"/><path d="M2467.22,131.779l1.94,0.487l-23.387,93.108l-1.939,-0.487l23.386,-93.108Z" style="stroke:#000;stroke-width:11.67px;"/><path d="M2499.98,140.297l1.931,0.522l-25.019,92.682l-1.931,-0.521l25.019,-92.683Z" style="stroke:#000;stroke-width:11.67px;"/><path d="M2532.59,149.39l1.922,0.555l-26.645,92.229l-1.921,-0.555l26.644,-92.229Z" style="stroke:#000;stroke-width:11.67px;"/><path d="M2565.04,159.055l1.911,0.589l-28.261,91.745l-1.911,-0.588l28.261,-91.746Z" style="stroke:#000;stroke-width:11.67px;"/><path d="M2597.31,169.288l1.901,0.622l-29.87,91.235l-1.901,-0.622l29.87,-91.235Z" style="stroke:#000;stroke-width:11.67px;"/><path d="M2629.39,180.087l1.889,0.656l-31.468,90.696l-1.89,-0.656l31.469,-90.696Z" style="stroke:#000;stroke-width:11.67px;"/><path d="M2661.28,191.448l1.878,0.689l-33.058,90.129l-1.877,-0.689l33.057,-90.129Z" style="stroke:#000;stroke-width:11.67px;"/><path d="M2692.97,203.368l1.865,0.722l-34.637,89.534l-1.865,-0.722l34.637,-89.534Z" style="stroke:#000;stroke-width:11.67px;"/><path d="M2724.44,215.843l1.853,0.755l-36.206,88.911l-1.852,-0.755l36.205,-88.911Z" style="stroke:#000;stroke-width:11.67px;"/><path d="M2755.69,228.87l1.839,0.786l-37.762,88.261l-1.839,-0.786l37.762,-88.261Z" style="stroke:#000;stroke-width:11.67px;"/><path d="M2786.7,242.443l1.824,0.819l-39.307,87.584l-1.825,-0.819l39.308,-87.584Z" style="stroke:#000;stroke-width:11.67px;"/><path d="M2817.47,256.56l1.81,0.851l-40.841,86.879l-1.81,-0.851l40.841,-86.879Z" style="stroke:#000;stroke-width:11.67px;"/><path d="M2847.99,271.215l1.795,0.882l-42.362,86.148l-1.795,-0.882l42.362,-86.148Z" style="stroke:#000;stroke-width:11.67px;"/><path d="M2878.24,286.404l1.779,0.914l-43.87,85.39l-1.779,-0.914l43.87,-85.39Z" style="stroke:#000;stroke-width:11.67px;"/><path d="M2908.22,302.123l1.763,0.945l-45.364,84.606l-1.763,-0.945l45.364,-84.606Z" style="stroke:#000;stroke-width:11.67px;"/><path d="M2937.93,318.366l1.746,0.976l-46.844,83.795l-1.745,-0.976l46.843,-83.795Z" style="stroke:#000;stroke-width:11.67px;"/><path d="M2967.34,335.129l1.729,1.006l-48.31,82.959l-1.728,-1.006l48.309,-82.959Z" style="stroke:#000;stroke-width:11.67px;"/><path d="M2996.45,352.406l1.711,1.037l-49.76,82.097l-1.71,-1.037l49.759,-82.097Z" style="stroke:#000;stroke-width:11.67px;"/><path d="M3025.26,370.192l1.692,1.067l-51.195,81.21l-1.692,-1.067l51.195,-81.21Z" style="stroke:#000;stroke-width:11.67px;"/><path d="M3053.74,388.482l1.673,1.096l-52.615,80.298l-1.673,-1.096l52.615,-80.298Z" style="stroke:#000;stroke-width:11.67px;"/><path d="M3081.91,407.27l1.653,1.125l-54.018,79.361l-1.653,-1.126l54.018,-79.36Z" style="stroke:#000;stroke-width:11.67px;"/><path d="M3109.73,426.55l1.634,1.154l-55.405,78.398l-1.633,-1.154l55.404,-78.398Z" style="stroke:#000;stroke-width:11.67px;"/><path d="M3137.22,446.315l1.613,1.183l-56.774,77.413l-1.612,-1.183l56.773,-77.413Z" style="stroke:#000;stroke-width:11.67px;"/><path d="M3164.35,466.561l1.592,1.211l-58.126,76.403l-1.592,-1.211l58.126,-76.403Z" style="stroke:#000;stroke-width:11.67px;"/><path d="M3191.12,487.281l1.571,1.239l-59.46,75.369l-1.57,-1.239l59.459,-75.369Z" style="stroke:#000;stroke-width:11.67px;"/><path d="M3217.53,508.468l1.548,1.266l-60.775,74.313l-1.549,-1.266l60.776,-74.313Z" style="stroke:#000;stroke-width:11.67px;"/><path d="M3243.56,530.116l1.526,1.293l-62.072,73.233l-1.526,-1.293l62.072,-73.233Z" style="stroke:#000;stroke-width:11.67px;"/><path d="M3269.2,552.218l1.503,1.32l-63.349,72.13l-1.503,-1.319l63.349,-72.131Z" style="stroke:#000;stroke-width:11.67px;"/><path d="M3294.45,574.767l1.479,1.346l-64.607,71.006l-1.479,-1.346l64.607,-71.006Z" style="stroke:#000;stroke-width:11.67px;"/><path d="M3319.3,597.757l1.455,1.372l-65.846,69.859l-1.455,-1.372l65.846,-69.859Z" style="stroke:#000;stroke-width:11.67px;"/><path d="M3343.74,621.18l1.431,1.397l-67.063,68.691l-1.431,-1.397l67.063,-68.691Z" style="stroke:#000;stroke-width:11.67px;"/><path d="M3367.77,645.028l1.406,1.423l-68.26,67.502l-1.406,-1.422l68.26,-67.503Z" style="stroke:#000;stroke-width:11.67px;"/><path d="M3391.37,669.296l1.381,1.447l-69.436,66.291l-1.381,-1.446l69.436,-66.292Z" style="stroke:#000;stroke-width:11.67px;"/><path d="M3414.55,693.975l1.356,1.47l-70.591,65.061l-1.355,-1.47l70.59,-65.061Z" style="stroke:#000;stroke-width:11.67px;"/><path d="M3437.28,719.057l1.329,1.494l-71.723,63.81l-1.329,-1.494l71.723,-63.81Z" style="stroke:#000;stroke-width:11.67px;"/><path d="M3459.58,744.535l1.303,1.517l-72.833,62.54l-1.303,-1.518l72.833,-62.539Z" style="stroke:#000;stroke-width:11.67px;"/><path d="M3481.42,770.4l1.277,1.54l-73.922,61.25l-1.276,-1.54l73.921,-61.25Z" style="stroke:#000;stroke-width:11.67px;"/><path d="M3502.8,796.646l1.248,1.562l-74.987,59.941l-1.248,-1.562l74.987,-59.941Z" style="stroke:#000;stroke-width:11.67px;"/><path d="M3523.72,823.263l1.221,1.584l-76.029,58.614l-1.221,-1.584l76.029,-58.614Z" style="stroke:#000;stroke-width:11.67px;"/><path d="M3544.17,850.244l1.193,1.606l-77.047,57.268l-1.193,-1.605l77.047,-57.269Z" style="stroke:#000;stroke-width:11.67px;"/><path d="M3564.14,877.581l1.165,1.625l-78.042,55.906l-1.165,-1.626l78.042,-55.905Z" style="stroke:#000;stroke-width:11.67px;"/><path d="M3583.62,905.264l1.136,1.646l-79.013,54.525l-1.136,-1.646l79.013,-54.525Z" style="stroke:#000;stroke-width:11.67px;"/><path d="M3602.62,933.285l1.106,1.666l-79.958,53.128l-1.107,-1.666l79.959,-53.128Z" style="stroke:#000;stroke-width:11.67px;"/><path d="M3621.12,961.636l1.077,1.685l-80.88,51.714l-1.077,-1.685l80.88,-51.714Z" style="stroke:#000;stroke-width:11.67px;"/><path d="M3639.12,990.307l1.048,1.704l-81.777,50.285l-1.048,-1.704l81.777,-50.285Z" style="stroke:#000;stroke-width:11.67px;"/><path d="M3656.62,1019.29l1.017,1.722l-82.648,48.839l-1.017,-1.721l82.648,-48.84Z" style="stroke:#000;stroke-width:11.67px;"/><path d="M3673.6,1048.58l0.987,1.74l-83.493,47.379l-0.988,-1.739l83.494,-47.38Z" style="stroke:#000;stroke-width:11.67px;"/><path d="M3690.06,1078.16l0.956,1.756l-84.313,45.905l-0.956,-1.756l84.313,-45.905Z" style="stroke:#000;stroke-width:11.67px;"/><path d="M3706,1108.02l0.925,1.773l-85.107,44.416l-0.926,-1.773l85.108,-44.416Z" style="stroke:#000;stroke-width:11.67px;"/><path d="M3721.42,1138.16l0.894,1.789l-85.875,42.913l-0.894,-1.789l85.875,-42.913Z" style="stroke:#000;stroke-width:11.67px;"/><path d="M3736.3,1168.57l0.862,1.805l-86.616,41.397l-0.862,-1.805l86.616,-41.397Z" style="stroke:#000;stroke-width:11.67px;"/><path d="M3750.64,1199.24l0.83,1.82l-87.33,39.868l-0.83,-1.82l87.33,-39.868Z" style="stroke:#000;stroke-width:11.67px;"/><path d="M3764.45,1230.15l0.798,1.833l-88.017,38.327l-0.798,-1.833l88.017,-38.327Z" style="stroke:#000;stroke-width:11.67px;"/><path d="M3777.71,1261.3l0.766,1.847l-88.678,36.775l-0.766,-1.848l88.678,-36.774Z" style="stroke:#000;stroke-width:11.67px;"/><path d="M3790.41,1292.67l0.733,1.86l-89.31,35.21l-0.733,-1.861l89.31,-35.209Z" style="stroke:#000;stroke-width:11.67px;"/><path d="M3802.57,1324.27l0.701,1.873l-89.915,33.634l-0.701,-1.873l89.915,-33.634Z" style="stroke:#000;stroke-width:11.67px;"/><path d="M3814.17,1356.07l0.667,1.886l-90.492,32.049l-0.668,-1.886l90.493,-32.049Z" style="stroke:#000;stroke-width:11.67px;"/><path d="M3825.21,1388.08l0.635,1.897l-91.042,30.453l-0.635,-1.896l91.042,-30.454Z" style="stroke:#000;stroke-width:11.67px;"/><path d="M3835.68,1420.27l0.601,1.908l-91.562,28.848l-0.601,-1.907l91.562,-28.849Z" style="stroke:#000;stroke-width:11.67px;"/><path d="M3845.59,1452.64l0.568,1.918l-92.056,27.235l-0.567,-1.918l92.055,-27.235Z" style="stroke:#000;stroke-width:11.67px;"/><path d="M3854.92,1485.18l0.533,1.928l-92.52,25.612l-0.534,-1.927l92.521,-25.613Z" style="stroke:#000;stroke-width:11.67px;"/><path d="M3863.68,1517.88l0.499,1.937l-92.956,23.982l-0.5,-1.936l92.957,-23.983Z" style="stroke:#000;stroke-width:11.67px;"/><path d="M3871.87,1550.73l0.466,1.945l-93.363,22.345l-0.466,-1.945l93.363,-22.345Z" style="stroke:#000;stroke-width:11.67px;"/><path d="M3879.48,1583.72l0.431,1.953l-93.742,20.7l-0.431,-1.953l93.742,-20.7Z" style="stroke:#000;stroke-width:11.67px;"/><path d="M3886.5,1616.84l0.397,1.96l-94.091,19.049l-0.397,-1.96l94.091,-19.049Z" style="stroke:#000;stroke-width:11.67px;"/><path d="M3892.95,1650.07l0.362,1.967l-94.411,17.393l-0.362,-1.967l94.411,-17.393Z" style="stroke:#000;stroke-width:11.67px;"/><path d="M3898.8,1683.41l0.328,1.973l-94.703,15.731l-0.327,-1.973l94.702,-15.731Z" style="stroke:#000;stroke-width:11.67px;"/><path d="M3904.07,1716.86l0.293,1.979l-94.964,14.063l-0.293,-1.978l94.964,-14.064Z" style="stroke:#000;stroke-width:11.67px;"/><path d="M3908.76,1750.38l0.258,1.984l-95.196,12.392l-0.258,-1.983l95.196,-12.393Z" style="stroke:#000;stroke-width:11.67px;"/><path d="M3912.85,1783.99l0.223,1.987l-95.4,10.718l-0.223,-1.988l95.4,-10.717Z" style="stroke:#000;stroke-width:11.67px;"/><path d="M3916.35,1817.66l0.188,1.991l-95.574,9.039l-0.188,-1.991l95.574,-9.039Z" style="stroke:#000;stroke-width:11.67px;"/><path d="M3919.26,1851.39l0.154,1.994l-95.718,7.358l-0.153,-1.994l95.717,-7.358Z" style="stroke:#000;stroke-width:11.67px;"/><path d="M3921.57,1885.16l0.118,1.996l-95.832,5.674l-0.118,-1.996l95.832,-5.674Z" style="stroke:#000;stroke-width:11.67px;"/><path d="M3923.3,1918.98l0.083,1.998l-95.917,3.989l-0.083,-1.999l95.917,-3.988Z" style="stroke:#000;stroke-width:11.67px;"/><path d="M3924.42,1952.81l0.048,2l-95.972,2.302l-0.048,-1.999l95.972,-2.303Z" style="stroke:#000;stroke-width:11.67px;"/><path d="M3924.95,1986.66l0.013,2l-95.998,0.615l-0.013,-2l95.998,-0.615Z" style="stroke:#000;stroke-width:11.67px;"/><path d="M3924.89,2020.51l-0.022,1.999l-95.994,-1.072l0.022,-2l95.994,1.073Z" style="stroke:#000;stroke-width:11.67px;"/><path d="M3924.23,2054.36l-0.058,1.999l-95.96,-2.759l0.058,-2l95.96,2.76Z" style="stroke:#000;stroke-width:11.67px;"/><path d="M3922.98,2088.19l-0.092,1.998l-95.898,-4.446l0.093,-1.997l95.897,4.445Z" style="stroke:#000;stroke-width:11.67px;"/><path d="M3921.13,2121.99l-0.128,1.996l-95.804,-6.13l0.128,-1.996l95.804,6.13Z" style="stroke:#000;stroke-width:11.67px;"/><path d="M3918.69,2155.76l-0.163,1.993l-95.682,-7.813l0.163,-1.993l95.682,7.813Z" style="stroke:#000;stroke-width:11.67px;"/><path d="M3915.66,2189.48l-0.197,1.991l-95.53,-9.494l0.198,-1.991l95.529,9.494Z" style="stroke:#000;stroke-width:11.67px;"/><path d="M3912.03,2223.14l-0.233,1.987l-95.347,-11.172l0.232,-1.986l95.348,11.171Z" style="stroke:#000;stroke-width:11.67px;"/><path d="M3907.81,2256.72l-0.268,1.982l-95.137,-12.846l0.268,-1.982l95.137,12.846Z" style="stroke:#000;stroke-width:11.67px;"/><path d="M3903.01,2290.24l-0.302,1.977l-94.896,-14.516l0.302,-1.977l94.896,14.516Z" style="stroke:#000;stroke-width:11.67px;"/><path d="M3897.61,2323.66l-0.337,1.971l-94.627,-16.182l0.338,-1.971l94.626,16.182Z" style="stroke:#000;stroke-width:11.67px;"/><path d="M3891.63,2356.98l-0.372,1.965l-94.327,-17.843l0.371,-1.965l94.328,17.843Z" style="stroke:#000;stroke-width:11.67px;"/><path d="M3885.06,2390.19l-0.406,1.958l-93.999,-19.497l0.406,-1.958l93.999,19.497Z" style="stroke:#000;stroke-width:11.67px;"/><path d="M3877.91,2423.28l-0.441,1.951l-93.642,-21.146l0.441,-1.951l93.642,21.146Z" style="stroke:#000;stroke-width:11.67px;"/><path d="M3870.18,2456.24l-0.475,1.942l-93.256,-22.789l0.475,-1.943l93.256,22.79Z" style="stroke:#000;stroke-width:11.67px;"/><path d="M3861.87,2489.06l-0.508,1.934l-92.841,-24.425l0.509,-1.934l92.84,24.425Z" style="stroke:#000;stroke-width:11.67px;"/><path d="M3852.99,2521.72l-0.543,1.925l-92.397,-26.053l0.543,-1.925l92.397,26.053Z" style="stroke:#000;stroke-width:11.67px;"/><path d="M3843.53,2554.23l-0.576,1.915l-91.925,-27.673l0.576,-1.915l91.925,27.673Z" style="stroke:#000;stroke-width:11.67px;"/><path d="M3833.51,2586.56l-0.61,1.905l-91.425,-29.285l0.611,-1.904l91.424,29.284Z" style="stroke:#000;stroke-width:11.67px;"/><path d="M3822.91,2618.72l-0.644,1.893l-90.895,-30.886l0.643,-1.894l90.896,30.887Z" style="stroke:#000;stroke-width:11.67px;"/><path d="M3811.76,2650.68l-0.676,1.882l-90.339,-32.479l0.677,-1.882l90.338,32.479Z" style="stroke:#000;stroke-width:11.67px;"/><path d="M3800.04,2682.44l-0.71,1.869l-89.754,-34.062l0.71,-1.87l89.754,34.063Z" style="stroke:#000;stroke-width:11.67px;"/><path d="M3787.77,2713.99l-0.742,1.857l-89.141,-35.634l0.742,-1.858l89.141,35.635Z" style="stroke:#000;stroke-width:11.67px;"/><path d="M3774.94,2745.32l-0.775,1.844l-88.502,-37.196l0.775,-1.844l88.502,37.196Z" style="stroke:#000;stroke-width:11.67px;"/><path d="M3761.57,2776.42l-0.807,1.83l-87.834,-38.746l0.807,-1.83l87.834,38.746Z" style="stroke:#000;stroke-width:11.67px;"/><path d="M3747.65,2807.28l-0.839,1.815l-87.139,-40.284l0.839,-1.815l87.139,40.284Z" style="stroke:#000;stroke-width:11.67px;"/><path d="M3733.19,2837.89l-0.871,1.8l-86.418,-41.809l0.871,-1.8l86.418,41.809Z" style="stroke:#000;stroke-width:11.67px;"/><path d="M3718.2,2868.24l-0.903,1.784l-85.669,-43.321l0.902,-1.785l85.67,43.322Z" style="stroke:#000;stroke-width:11.67px;"/><path d="M3702.67,2898.33l-0.933,1.769l-84.895,-44.821l0.934,-1.769l84.894,44.821Z" style="stroke:#000;stroke-width:11.67px;"/><path d="M3686.62,2928.13l-0.965,1.752l-84.094,-46.306l0.965,-1.752l84.094,46.306Z" style="stroke:#000;stroke-width:11.67px;"/><path d="M3670.04,2957.65l-0.996,1.734l-83.267,-47.776l0.996,-1.735l83.267,47.777Z" style="stroke:#000;stroke-width:11.67px;"/><path d="M3652.95,2986.88l-1.025,1.717l-82.415,-49.233l1.026,-1.717l82.414,49.233Z" style="stroke:#000;stroke-width:11.67px;"/><path d="M3635.35,3015.79l-1.056,1.699l-81.536,-50.674l1.056,-1.699l81.536,50.674Z" style="stroke:#000;stroke-width:11.67px;"/><path d="M3617.24,3044.4l-1.085,1.68l-80.633,-52.099l1.085,-1.68l80.633,52.099Z" style="stroke:#000;stroke-width:11.67px;"/><path d="M3598.64,3072.68l-1.114,1.661l-79.705,-53.509l1.115,-1.66l79.704,53.508Z" style="stroke:#000;stroke-width:11.67px;"/><path d="M3579.53,3100.63l-1.143,1.641l-78.752,-54.901l1.143,-1.641l78.752,54.901Z" style="stroke:#000;stroke-width:11.67px;"/><path d="M3559.95,3128.24l-1.172,1.62l-77.775,-56.277l1.172,-1.62l77.775,56.277Z" style="stroke:#000;stroke-width:11.67px;"/><path d="M3539.87,3155.5l-1.2,1.6l-76.774,-57.635l1.201,-1.6l76.773,57.635Z" style="stroke:#000;stroke-width:11.67px;"/><path d="M3519.33,3182.41l-1.229,1.578l-75.749,-58.975l1.229,-1.579l75.749,58.976Z" style="stroke:#000;stroke-width:11.67px;"/><path d="M3498.31,3208.95l-1.256,1.557l-74.701,-60.298l1.257,-1.556l74.7,60.297Z" style="stroke:#000;stroke-width:11.67px;"/><path d="M3476.83,3235.11l-1.284,1.534l-73.629,-61.601l1.283,-1.534l73.63,61.601Z" style="stroke:#000;stroke-width:11.67px;"/><path d="M3454.89,3260.89l-1.31,1.512l-72.535,-62.886l1.31,-1.512l72.535,62.886Z" style="stroke:#000;stroke-width:11.67px;"/><path d="M3432.5,3286.29l-1.336,1.488l-71.419,-64.151l1.337,-1.488l71.418,64.151Z" style="stroke:#000;stroke-width:11.67px;"/><path d="M3409.67,3311.29l-1.362,1.465l-70.28,-65.397l1.362,-1.464l70.28,65.396Z" style="stroke:#000;stroke-width:11.67px;"/><path d="M3386.41,3335.88l-1.388,1.44l-69.12,-66.622l1.388,-1.44l69.12,66.622Z" style="stroke:#000;stroke-width:11.67px;"/><path d="M3362.71,3360.06l-1.413,1.415l-67.938,-67.826l1.413,-1.415l67.938,67.826Z" style="stroke:#000;stroke-width:11.67px;"/><path d="M3338.6,3383.82l-1.438,1.39l-66.736,-69.01l1.438,-1.39l66.736,69.01Z" style="stroke:#000;stroke-width:11.67px;"/><path d="M3314.07,3407.15l-1.462,1.365l-65.512,-70.173l1.462,-1.364l65.512,70.172Z" style="stroke:#000;stroke-width:11.67px;"/><path d="M3289.13,3430.05l-1.486,1.339l-64.268,-71.313l1.485,-1.339l64.269,71.313Z" style="stroke:#000;stroke-width:11.67px;"/><path d="M3263.8,3452.5l-1.509,1.312l-63.006,-72.431l1.509,-1.313l63.006,72.432Z" style="stroke:#000;stroke-width:11.67px;"/><path d="M3238.07,3474.51l-1.532,1.286l-61.722,-73.528l1.532,-1.286l61.722,73.528Z" style="stroke:#000;stroke-width:11.67px;"/><path d="M3211.97,3496.06l-1.554,1.259l-60.421,-74.602l1.555,-1.258l60.42,74.601Z" style="stroke:#000;stroke-width:11.67px;"/><path d="M3185.48,3517.15l-1.576,1.231l-59.1,-75.652l1.576,-1.231l59.1,75.652Z" style="stroke:#000;stroke-width:11.67px;"/><path d="M3158.63,3537.77l-1.598,1.204l-57.761,-76.679l1.598,-1.203l57.761,76.678Z" style="stroke:#000;stroke-width:11.67px;"/><path d="M3131.43,3557.91l-1.618,1.175l-56.405,-77.682l1.619,-1.175l56.404,77.682Z" style="stroke:#000;stroke-width:11.67px;"/><path d="M3103.87,3577.58l-1.639,1.146l-55.031,-78.662l1.639,-1.146l55.031,78.662Z" style="stroke:#000;stroke-width:11.67px;"/><path d="M3075.97,3596.75l-1.659,1.117l-53.639,-79.617l1.658,-1.117l53.64,79.617Z" style="stroke:#000;stroke-width:11.67px;"/><path d="M3047.74,3615.43l-1.678,1.088l-52.232,-80.547l1.678,-1.088l52.232,80.547Z" style="stroke:#000;stroke-width:11.67px;"/><path d="M3019.18,3633.62l-1.697,1.058l-50.807,-81.453l1.696,-1.058l50.808,81.453Z" style="stroke:#000;stroke-width:11.67px;"/><path d="M2990.31,3651.3l-1.715,1.028l-49.368,-82.333l1.715,-1.029l49.368,82.334Z" style="stroke:#000;stroke-width:11.67px;"/><path d="M2961.13,3668.47l-1.733,0.998l-47.913,-83.188l1.733,-0.998l47.913,83.188Z" style="stroke:#000;stroke-width:11.67px;"/><path d="M2931.66,3685.12l-1.75,0.968l-46.444,-84.017l1.75,-0.968l46.444,84.017Z" style="stroke:#000;stroke-width:11.67px;"/><path d="M2901.9,3701.25l-1.767,0.937l-44.96,-84.821l1.767,-0.937l44.96,84.821Z" style="stroke:#000;stroke-width:11.67px;"/><path d="M2871.86,3716.86l-1.783,0.905l-43.463,-85.598l1.784,-0.905l43.462,85.598Z" style="stroke:#000;stroke-width:11.67px;"/><path d="M2841.54,3731.93l-1.799,0.873l-41.951,-86.348l1.799,-0.874l41.951,86.349Z" style="stroke:#000;stroke-width:11.67px;"/><path d="M2810.97,3746.48l-1.814,0.842l-40.427,-87.073l1.814,-0.842l40.427,87.073Z" style="stroke:#000;stroke-width:11.67px;"/><path d="M2780.15,3760.48l-1.829,0.81l-38.89,-87.77l1.829,-0.81l38.89,87.77Z" style="stroke:#000;stroke-width:11.67px;"/><path d="M2749.09,3773.94l-1.842,0.778l-37.342,-88.44l1.843,-0.778l37.341,88.44Z" style="stroke:#000;stroke-width:11.67px;"/><path d="M2717.79,3786.85l-1.856,0.745l-35.782,-89.083l1.856,-0.745l35.782,89.083Z" style="stroke:#000;stroke-width:11.67px;"/><path d="M2686.27,3799.2l-1.869,0.713l-34.21,-89.698l1.869,-0.712l34.21,89.697Z" style="stroke:#000;stroke-width:11.67px;"/><path d="M2654.54,3811.01l-1.881,0.68l-32.628,-90.285l1.881,-0.68l32.628,90.285Z" style="stroke:#000;stroke-width:11.67px;"/><path d="M2622.61,3822.25l-1.893,0.646l-31.036,-90.844l1.893,-0.647l31.036,90.845Z" style="stroke:#000;stroke-width:11.67px;"/><path d="M2590.49,3832.93l-1.904,0.613l-29.435,-91.376l1.904,-0.613l29.435,91.376Z" style="stroke:#000;stroke-width:11.67px;"/><path d="M2558.18,3843.04l-1.914,0.58l-27.824,-91.88l1.914,-0.579l27.824,91.879Z" style="stroke:#000;stroke-width:11.67px;"/><path d="M2525.7,3852.58l-1.924,0.546l-26.204,-92.354l1.924,-0.546l26.204,92.354Z" style="stroke:#000;stroke-width:11.67px;"/><path d="M2493.05,3861.56l-1.933,0.512l-24.578,-92.8l1.934,-0.512l24.577,92.8Z" style="stroke:#000;stroke-width:11.67px;"/><path d="M2460.26,3869.95l-1.942,0.478l-22.942,-93.218l1.942,-0.478l22.942,93.218Z" style="stroke:#000;stroke-width:11.67px;"/><path d="M2427.32,3877.77l-1.95,0.443l-21.301,-93.607l1.95,-0.443l21.301,93.607Z" style="stroke:#000;stroke-width:11.67px;"/><path d="M2394.25,3885.01l-1.958,0.409l-19.652,-93.967l1.958,-0.409l19.652,93.967Z" style="stroke:#000;stroke-width:11.67px;"/><path d="M2361.06,3891.66l-1.964,0.375l-17.998,-94.298l1.965,-0.375l17.997,94.298Z" style="stroke:#000;stroke-width:11.67px;"/><path d="M2327.75,3897.74l-1.97,0.341l-16.338,-94.6l1.971,-0.34l16.337,94.599Z" style="stroke:#000;stroke-width:11.67px;"/><path d="M2294.35,3903.22l-1.976,0.305l-14.672,-94.872l1.976,-0.306l14.672,94.873Z" style="stroke:#000;stroke-width:11.67px;"/><path d="M2260.85,3908.12l-1.981,0.271l-13.002,-95.116l1.981,-0.271l13.002,95.116Z" style="stroke:#000;stroke-width:11.67px;"/><path d="M2227.27,3912.43l-1.986,0.236l-11.328,-95.329l1.986,-0.236l11.328,95.329Z" style="stroke:#000;stroke-width:11.67px;"/><path d="M2193.62,3916.14l-1.99,0.201l-9.651,-95.514l1.99,-0.201l9.651,95.514Z" style="stroke:#000;stroke-width:11.67px;"/><path d="M2159.91,3919.27l-1.993,0.166l-7.971,-95.669l1.993,-0.166l7.971,95.669Z" style="stroke:#000;stroke-width:11.67px;"/><path d="M2126.15,3921.8l-1.996,0.131l-6.288,-95.793l1.996,-0.131l6.288,95.793Z" style="stroke:#000;stroke-width:11.67px;"/><path d="M2092.35,3923.74l-1.998,0.096l-4.603,-95.889l1.998,-0.096l4.603,95.889Z" style="stroke:#000;stroke-width:11.67px;"/><path d="M2058.53,3925.08l-1.999,0.061l-2.917,-95.956l1.999,-0.061l2.917,95.956Z" style="stroke:#000;stroke-width:11.67px;"/><path d="M2024.68,3925.83l-2,0.026l-1.23,-95.992l1.999,-0.026l1.231,95.992Z" style="stroke:#000;stroke-width:11.67px;"/><path d="M1990.83,3925.98l-2,-0.01l0.457,-95.999l2,0.01l-0.457,95.999Z" style="stroke:#000;stroke-width:11.67px;"/><path d="M1956.98,3925.54l-2,-0.045l2.144,-95.976l2,0.045l-2.144,95.976Z" style="stroke:#000;stroke-width:11.67px;"/><path d="M1923.14,3924.51l-1.999,-0.08l3.831,-95.924l1.999,0.08l-3.831,95.924Z" style="stroke:#000;stroke-width:11.67px;"/><path d="M1889.33,3922.88l-1.996,-0.115l5.516,-95.841l1.997,0.115l-5.517,95.841Z" style="stroke:#000;stroke-width:11.67px;"/><path d="M1855.55,3920.65l-1.994,-0.15l7.2,-95.729l1.994,0.15l-7.2,95.729Z" style="stroke:#000;stroke-width:11.67px;"/><path d="M1821.81,3917.83l-1.992,-0.185l8.882,-95.588l1.991,0.185l-8.881,95.588Z" style="stroke:#000;stroke-width:11.67px;"/><path d="M1788.13,3914.42l-1.987,-0.22l10.56,-95.418l1.988,0.22l-10.561,95.418Z" style="stroke:#000;stroke-width:11.67px;"/><path d="M1754.51,3910.42l-1.984,-0.255l12.236,-95.217l1.984,0.255l-12.236,95.217Z" style="stroke:#000;stroke-width:11.67px;"/><path d="M1720.97,3905.83l-1.978,-0.29l13.907,-94.987l1.979,0.29l-13.908,94.987Z" style="stroke:#000;stroke-width:11.67px;"/><path d="M1687.52,3900.65l-1.974,-0.325l15.575,-94.728l1.974,0.325l-15.575,94.728Z" style="stroke:#000;stroke-width:11.67px;"/><path d="M1654.16,3894.88l-1.967,-0.359l17.237,-94.439l1.968,0.359l-17.238,94.439Z" style="stroke:#000;stroke-width:11.67px;"/><path d="M1620.9,3888.52l-1.961,-0.394l18.895,-94.122l1.961,0.393l-18.895,94.123Z" style="stroke:#000;stroke-width:11.67px;"/><path d="M1587.77,3881.59l-1.954,-0.428l20.546,-93.775l1.954,0.428l-20.546,93.775Z" style="stroke:#000;stroke-width:11.67px;"/><path d="M1554.76,3874.07l-1.946,-0.463l22.191,-93.4l1.946,0.463l-22.191,93.4Z" style="stroke:#000;stroke-width:11.67px;"/><path d="M1521.89,3865.97l-1.938,-0.497l23.83,-92.995l1.937,0.496l-23.829,92.996Z" style="stroke:#000;stroke-width:11.67px;"/><path d="M1489.17,3857.3l-1.928,-0.531l25.46,-92.562l1.929,0.53l-25.461,92.563Z" style="stroke:#000;stroke-width:11.67px;"/><path d="M1456.6,3848.05l-1.919,-0.564l27.084,-92.101l1.919,0.564l-27.084,92.101Z" style="stroke:#000;stroke-width:11.67px;"/><path d="M1424.2,3838.23l-1.909,-0.598l28.698,-91.61l1.909,0.598l-28.698,91.61Z" style="stroke:#000;stroke-width:11.67px;"/><path d="M1391.98,3827.84l-1.898,-0.631l30.304,-91.092l1.898,0.631l-30.304,91.092Z" style="stroke:#000;stroke-width:11.67px;"/><path d="M1359.95,3816.89l-1.887,-0.664l31.9,-90.545l1.887,0.664l-31.9,90.545Z" style="stroke:#000;stroke-width:11.67px;"/><path d="M1328.11,3805.38l-1.875,-0.697l33.487,-89.971l1.874,0.698l-33.486,89.97Z" style="stroke:#000;stroke-width:11.67px;"/><path d="M1296.48,3793.31l-1.862,-0.731l35.063,-89.368l1.862,0.731l-35.063,89.368Z" style="stroke:#000;stroke-width:11.67px;"/><path d="M1265.07,3780.68l-1.849,-0.763l36.628,-88.738l1.849,0.763l-36.628,88.738Z" style="stroke:#000;stroke-width:11.67px;"/><path d="M1233.89,3767.51l-1.835,-0.796l38.182,-88.08l1.835,0.796l-38.182,88.08Z" style="stroke:#000;stroke-width:11.67px;"/><path d="M1202.94,3753.79l-1.821,-0.828l39.724,-87.395l1.821,0.827l-39.724,87.396Z" style="stroke:#000;stroke-width:11.67px;"/><path d="M1172.24,3739.52l-1.806,-0.859l41.255,-86.684l1.806,0.859l-41.255,86.684Z" style="stroke:#000;stroke-width:11.67px;"/><path d="M1141.79,3724.72l-1.79,-0.891l42.771,-85.946l1.791,0.891l-42.772,85.946Z" style="stroke:#000;stroke-width:11.67px;"/><path d="M1111.61,3709.39l-1.775,-0.923l44.276,-85.18l1.775,0.922l-44.276,85.181Z" style="stroke:#000;stroke-width:11.67px;"/><path d="M1081.7,3693.53l-1.758,-0.953l45.766,-84.389l1.758,0.953l-45.766,84.389Z" style="stroke:#000;stroke-width:11.67px;"/><path d="M1052.08,3677.14l-1.741,-0.985l47.243,-83.571l1.741,0.984l-47.243,83.572Z" style="stroke:#000;stroke-width:11.67px;"/><path d="M1022.74,3660.24l-1.723,-1.015l48.704,-82.728l1.723,1.015l-48.704,82.728Z" style="stroke:#000;stroke-width:11.67px;"/><path d="M993.713,3642.83l-1.705,-1.044l50.15,-81.86l1.705,1.045l-50.15,81.859Z" style="stroke:#000;stroke-width:11.67px;"/><path d="M964.993,3624.9l-1.687,-1.074l51.582,-80.966l1.687,1.075l-51.582,80.965Z" style="stroke:#000;stroke-width:11.67px;"/><path d="M936.593,3606.48l-1.668,-1.104l52.997,-80.046l1.667,1.104l-52.996,80.046Z" style="stroke:#000;stroke-width:11.67px;"/><path d="M908.521,3587.56l-1.648,-1.133l54.395,-79.102l1.648,1.133l-54.395,79.102Z" style="stroke:#000;stroke-width:11.67px;"/><path d="M880.786,3568.14l-1.628,-1.162l55.777,-78.134l1.628,1.162l-55.777,78.134Z" style="stroke:#000;stroke-width:11.67px;"/><path d="M853.396,3548.25l-1.607,-1.191l57.142,-77.141l1.607,1.19l-57.142,77.142Z" style="stroke:#000;stroke-width:11.67px;"/><path d="M826.36,3527.87l-1.586,-1.219l58.489,-76.125l1.586,1.219l-58.489,76.125Z" style="stroke:#000;stroke-width:11.67px;"/><path d="M799.687,3507.03l-1.565,-1.246l59.818,-75.086l1.564,1.247l-59.817,75.085Z" style="stroke:#000;stroke-width:11.67px;"/><path d="M773.384,3485.71l-1.543,-1.273l61.129,-74.023l1.542,1.274l-61.128,74.022Z" style="stroke:#000;stroke-width:11.67px;"/><path d="M747.459,3463.94l-1.519,-1.301l62.42,-72.936l1.519,1.3l-62.42,72.937Z" style="stroke:#000;stroke-width:11.67px;"/><path d="M721.922,3441.72l-1.497,-1.327l63.693,-71.828l1.496,1.327l-63.692,71.828Z" style="stroke:#000;stroke-width:11.67px;"/><path d="M696.779,3419.05l-1.473,-1.353l64.945,-70.698l1.473,1.353l-64.945,70.698Z" style="stroke:#000;stroke-width:11.67px;"/><path d="M672.038,3395.94l-1.449,-1.379l66.178,-69.545l1.448,1.379l-66.177,69.545Z" style="stroke:#000;stroke-width:11.67px;"/><path d="M647.707,3372.4l-1.424,-1.404l67.389,-68.371l1.425,1.404l-67.39,68.371Z" style="stroke:#000;stroke-width:11.67px;"/><path d="M623.794,3348.44l-1.4,-1.429l68.581,-67.176l1.4,1.429l-68.581,67.176Z" style="stroke:#000;stroke-width:11.67px;"/><path d="M600.306,3324.06l-1.375,-1.453l69.751,-65.96l1.375,1.453l-69.751,65.96Z" style="stroke:#000;stroke-width:11.67px;"/><path d="M577.249,3299.27l-1.348,-1.477l70.9,-64.725l1.348,1.477l-70.9,64.725Z" style="stroke:#000;stroke-width:11.67px;"/><path d="M554.632,3274.08l-1.322,-1.501l72.026,-63.468l1.323,1.501l-72.027,63.468Z" style="stroke:#000;stroke-width:11.67px;"/><path d="M532.462,3248.5l-1.296,-1.524l73.131,-62.192l1.295,1.524l-73.13,62.192Z" style="stroke:#000;stroke-width:11.67px;"/><path d="M510.744,3222.53l-1.269,-1.546l74.213,-60.897l1.269,1.546l-74.213,60.897Z" style="stroke:#000;stroke-width:11.67px;"/><path d="M489.486,3196.18l-1.241,-1.568l75.271,-59.583l1.242,1.568l-75.272,59.583Z" style="stroke:#000;stroke-width:11.67px;"/><path d="M468.695,3169.46l-1.214,-1.59l76.307,-58.252l1.214,1.59l-76.307,58.252Z" style="stroke:#000;stroke-width:11.67px;"/><path d="M448.376,3142.38l-1.185,-1.61l77.319,-56.901l1.185,1.61l-77.319,56.901Z" style="stroke:#000;stroke-width:11.67px;"/><path d="M428.536,3114.95l-1.157,-1.631l78.308,-55.533l1.157,1.631l-78.308,55.533Z" style="stroke:#000;stroke-width:11.67px;"/><path d="M409.182,3087.18l-1.128,-1.652l79.271,-54.148l1.128,1.652l-79.271,54.148Z" style="stroke:#000;stroke-width:11.67px;"/><path d="M390.319,3059.07l-1.099,-1.671l80.211,-52.747l1.099,1.671l-80.211,52.747Z" style="stroke:#000;stroke-width:11.67px;"/><path d="M371.953,3030.63l-1.07,-1.69l81.126,-51.329l1.069,1.69l-81.125,51.329Z" style="stroke:#000;stroke-width:11.67px;"/><path d="M354.089,3001.87l-1.039,-1.709l82.015,-49.895l1.039,1.709l-82.015,49.895Z" style="stroke:#000;stroke-width:11.67px;"/><path d="M336.734,2972.8l-1.009,-1.726l82.879,-48.446l1.009,1.727l-82.879,48.445Z" style="stroke:#000;stroke-width:11.67px;"/><path d="M319.892,2943.44l-0.979,-1.744l83.719,-46.981l0.978,1.744l-83.718,46.981Z" style="stroke:#000;stroke-width:11.67px;"/><path d="M303.569,2913.78l-0.948,-1.761l84.531,-45.503l0.948,1.761l-84.531,45.503Z" style="stroke:#000;stroke-width:11.67px;"/><path d="M287.77,2883.84l-0.917,-1.778l85.318,-44.009l0.917,1.777l-85.318,44.01Z" style="stroke:#000;stroke-width:11.67px;"/><path d="M272.5,2853.62l-0.886,-1.793l86.078,-42.504l0.886,1.793l-86.078,42.504Z" style="stroke:#000;stroke-width:11.67px;"/><path d="M257.763,2823.15l-0.854,-1.808l86.812,-40.984l0.854,1.808l-86.812,40.984Z" style="stroke:#000;stroke-width:11.67px;"/><path d="M243.564,2792.41l-0.822,-1.823l87.519,-39.452l0.822,1.823l-87.519,39.452Z" style="stroke:#000;stroke-width:11.67px;"/><path d="M229.907,2761.44l-0.79,-1.837l88.199,-37.907l0.79,1.837l-88.199,37.907Z" style="stroke:#000;stroke-width:11.67px;"/><path d="M216.797,2730.22l-0.757,-1.851l88.851,-36.351l0.757,1.851l-88.851,36.351Z" style="stroke:#000;stroke-width:11.67px;"/><path d="M204.237,2698.79l-0.724,-1.864l89.476,-34.784l0.725,1.864l-89.477,34.784Z" style="stroke:#000;stroke-width:11.67px;"/><path d="M192.232,2667.13l-0.691,-1.876l90.074,-33.206l0.692,1.876l-90.075,33.206Z" style="stroke:#000;stroke-width:11.67px;"/><path d="M180.786,2635.27l-0.659,-1.888l90.644,-31.618l0.659,1.889l-90.644,31.617Z" style="stroke:#000;stroke-width:11.67px;"/><path d="M169.901,2603.22l-0.626,-1.899l91.186,-30.02l0.625,1.9l-91.185,30.019Z" style="stroke:#000;stroke-width:11.67px;"/><path d="M159.581,2570.98l-0.592,-1.91l91.699,-28.413l0.592,1.911l-91.699,28.412Z" style="stroke:#000;stroke-width:11.67px;"/><path d="M149.829,2538.56l-0.558,-1.92l92.184,-26.796l0.559,1.92l-92.185,26.796Z" style="stroke:#000;stroke-width:11.67px;"/><path d="M140.649,2505.97l-0.525,-1.93l92.642,-25.172l0.524,1.931l-92.641,25.171Z" style="stroke:#000;stroke-width:11.67px;"/><path d="M132.043,2473.23l-0.491,-1.939l93.07,-23.54l0.49,1.939l-93.069,23.54Z" style="stroke:#000;stroke-width:11.67px;"/><path d="M124.013,2440.34l-0.456,-1.947l93.469,-21.9l0.456,1.947l-93.469,21.9Z" style="stroke:#000;stroke-width:11.67px;"/><path d="M116.563,2407.32l-0.422,-1.955l93.839,-20.253l0.422,1.955l-93.839,20.253Z" style="stroke:#000;stroke-width:11.67px;"/><path d="M109.695,2374.17l-0.388,-1.962l94.181,-18.602l0.387,1.962l-94.18,18.602Z" style="stroke:#000;stroke-width:11.67px;"/><path d="M103.41,2340.91l-0.353,-1.969l94.493,-16.943l0.353,1.969l-94.493,16.943Z" style="stroke:#000;stroke-width:11.67px;"/><path d="M97.711,2307.53l-0.318,-1.974l94.776,-15.28l0.318,1.975l-94.776,15.279Z" style="stroke:#000;stroke-width:11.67px;"/><path d="M92.599,2274.07l-0.283,-1.98l95.03,-13.612l0.284,1.98l-95.031,13.612Z" style="stroke:#000;stroke-width:11.67px;"/><path d="M88.077,2240.52l-0.249,-1.984l95.255,-11.939l0.248,1.984l-95.254,11.939Z" style="stroke:#000;stroke-width:11.67px;"/><path d="M84.144,2206.89l-0.213,-1.989l95.449,-10.262l0.214,1.988l-95.45,10.263Z" style="stroke:#000;stroke-width:11.67px;"/><path d="M80.804,2173.21l-0.179,-1.992l95.615,-8.584l0.179,1.992l-95.615,8.584Z" style="stroke:#000;stroke-width:11.67px;"/><path d="M78.056,2139.46l-0.144,-1.995l95.752,-6.902l0.143,1.995l-95.751,6.902Z" style="stroke:#000;stroke-width:11.67px;"/><path d="M75.901,2105.68l-0.109,-1.997l95.859,-5.218l0.108,1.997l-95.858,5.218Z" style="stroke:#000;stroke-width:11.67px;"/><path d="M74.341,2071.86l-0.074,-1.999l95.935,-3.532l0.074,1.999l-95.935,3.532Z" style="stroke:#000;stroke-width:11.67px;"/><path d="M73.375,2038.02l-0.038,-2l95.982,-1.845l0.038,2l-95.982,1.845Z" style="stroke:#000;stroke-width:11.67px;"/><path d="M73.004,2004.17l-0.003,-2l96,-0.158l0.003,2l-96,0.158Z" style="stroke:#000;stroke-width:11.67px;"/><path d="M73.228,1970.32l0.032,-2l95.988,1.529l-0.032,2l-95.988,-1.529Z" style="stroke:#000;stroke-width:11.67px;"/><path d="M74.048,1936.47l0.067,-1.999l95.946,3.216l-0.067,1.999l-95.946,-3.216Z" style="stroke:#000;stroke-width:11.67px;"/><path d="M75.462,1902.65l0.102,-1.998l95.875,4.903l-0.103,1.997l-95.874,-4.902Z" style="stroke:#000;stroke-width:11.67px;"/><path d="M77.47,1868.86l0.137,-1.996l95.774,6.587l-0.137,1.995l-95.774,-6.586Z" style="stroke:#000;stroke-width:11.67px;"/><path d="M80.072,1835.1l0.172,-1.992l95.643,8.269l-0.172,1.992l-95.643,-8.269Z" style="stroke:#000;stroke-width:11.67px;"/><path d="M83.267,1801.4l0.207,-1.99l95.483,9.949l-0.207,1.989l-95.483,-9.948Z" style="stroke:#000;stroke-width:11.67px;"/><path d="M87.053,1767.76l0.242,-1.985l95.294,11.626l-0.242,1.985l-95.294,-11.626Z" style="stroke:#000;stroke-width:11.67px;"/><path d="M91.431,1734.19l0.277,-1.981l95.074,13.299l-0.277,1.981l-95.074,-13.299Z" style="stroke:#000;stroke-width:11.67px;"/><path d="M96.397,1700.7l0.312,-1.976l94.826,14.968l-0.312,1.975l-94.826,-14.967Z" style="stroke:#000;stroke-width:11.67px;"/><path d="M101.952,1667.31l0.346,-1.97l94.549,16.632l-0.347,1.97l-94.548,-16.632Z" style="stroke:#000;stroke-width:11.67px;"/><path d="M108.093,1634.01l0.381,-1.964l94.241,18.292l-0.381,1.963l-94.241,-18.291Z" style="stroke:#000;stroke-width:11.67px;"/><path d="M114.817,1600.84l0.416,-1.957l93.905,19.945l-0.415,1.957l-93.906,-19.945Z" style="stroke:#000;stroke-width:11.67px;"/><path d="M122.124,1567.78l0.45,-1.949l93.54,21.593l-0.449,1.948l-93.541,-21.592Z" style="stroke:#000;stroke-width:11.67px;"/><path d="M130.011,1534.86l0.484,-1.941l93.147,23.234l-0.485,1.94l-93.146,-23.233Z" style="stroke:#000;stroke-width:11.67px;"/><path d="M138.476,1502.08l0.518,-1.932l92.723,24.866l-0.518,1.932l-92.723,-24.866Z" style="stroke:#000;stroke-width:11.67px;"/><path d="M147.515,1469.45l0.552,-1.922l92.272,26.492l-0.552,1.923l-92.272,-26.493Z" style="stroke:#000;stroke-width:11.67px;"/><path d="M157.126,1436.99l0.585,-1.912l91.793,28.11l-0.586,1.913l-91.792,-28.111Z" style="stroke:#000;stroke-width:11.67px;"/><path d="M167.306,1404.71l0.619,-1.902l91.284,29.719l-0.619,1.902l-91.284,-29.719Z" style="stroke:#000;stroke-width:11.67px;"/><path d="M178.052,1372.6l0.653,-1.891l90.747,31.319l-0.652,1.891l-90.748,-31.319Z" style="stroke:#000;stroke-width:11.67px;"/><path d="M189.361,1340.69l0.686,-1.879l90.182,32.909l-0.685,1.879l-90.183,-32.909Z" style="stroke:#000;stroke-width:11.67px;"/><path d="M201.229,1308.99l0.718,-1.867l89.591,34.49l-0.719,1.866l-89.59,-34.489Z" style="stroke:#000;stroke-width:11.67px;"/><path d="M213.652,1277.5l0.751,-1.854l88.971,36.059l-0.751,1.854l-88.971,-36.059Z" style="stroke:#000;stroke-width:11.67px;"/><path d="M226.627,1246.23l0.784,-1.84l88.323,37.617l-0.784,1.84l-88.323,-37.617Z" style="stroke:#000;stroke-width:11.67px;"/><path d="M240.149,1215.19l0.816,-1.826l87.648,39.163l-0.815,1.826l-87.649,-39.163Z" style="stroke:#000;stroke-width:11.67px;"/><path d="M254.215,1184.4l0.848,-1.811l86.946,40.698l-0.848,1.811l-86.946,-40.698Z" style="stroke:#000;stroke-width:11.67px;"/><path d="M268.82,1153.86l0.88,-1.796l86.217,42.22l-0.879,1.796l-86.218,-42.22Z" style="stroke:#000;stroke-width:11.67px;"/><path d="M283.96,1123.58l0.911,-1.78l85.462,43.729l-0.911,1.78l-85.462,-43.729Z" style="stroke:#000;stroke-width:11.67px;"/><path d="M299.629,1093.57l0.942,-1.764l84.68,45.224l-0.942,1.765l-84.68,-45.225Z" style="stroke:#000;stroke-width:11.67px;"/><path d="M315.823,1063.84l0.973,-1.747l83.873,46.706l-0.973,1.747l-83.873,-46.706Z" style="stroke:#000;stroke-width:11.67px;"/><path d="M332.538,1034.4l1.003,-1.73l83.039,48.172l-1.004,1.73l-83.038,-48.172Z" style="stroke:#000;stroke-width:11.67px;"/><path d="M349.767,1005.26l1.034,-1.712l82.179,49.625l-1.034,1.712l-82.179,-49.625Z" style="stroke:#000;stroke-width:11.67px;"/><path d="M367.506,976.426l1.063,-1.693l81.295,51.061l-1.064,1.694l-81.294,-51.062Z" style="stroke:#000;stroke-width:11.67px;"/><path d="M385.749,947.908l1.093,-1.674l80.384,52.482l-1.093,1.675l-80.384,-52.483Z" style="stroke:#000;stroke-width:11.67px;"/><path d="M404.49,919.716l1.123,-1.656l79.449,53.888l-1.123,1.655l-79.449,-53.887Z" style="stroke:#000;stroke-width:11.67px;"/><path d="M423.724,891.857l1.151,-1.636l78.49,55.276l-1.151,1.635l-78.49,-55.275Z" style="stroke:#000;stroke-width:11.67px;"/><path d="M443.444,864.34l1.181,-1.615l77.506,56.647l-1.181,1.614l-77.506,-56.646Z" style="stroke:#000;stroke-width:11.67px;"/><path d="M463.646,837.174l1.208,-1.594l76.498,58l-1.208,1.594l-76.498,-58Z" style="stroke:#000;stroke-width:11.67px;"/><path d="M484.321,810.368l1.236,-1.573l75.468,59.336l-1.237,1.572l-75.467,-59.335Z" style="stroke:#000;stroke-width:11.67px;"/><path d="M505.465,783.929l1.263,-1.551l74.413,60.653l-1.264,1.55l-74.412,-60.652Z" style="stroke:#000;stroke-width:11.67px;"/><path d="M527.07,757.865l1.29,-1.527l73.335,61.951l-1.29,1.528l-73.335,-61.952Z" style="stroke:#000;stroke-width:11.67px;"/><path d="M549.13,732.186l1.317,-1.505l72.235,63.231l-1.318,1.505l-72.234,-63.231Z" style="stroke:#000;stroke-width:11.67px;"/><path d="M571.637,706.898l1.344,-1.481l71.112,64.49l-1.343,1.482l-71.113,-64.491Z" style="stroke:#000;stroke-width:11.67px;"/><path d="M594.586,682.01l1.369,-1.458l69.968,65.731l-1.369,1.457l-69.968,-65.73Z" style="stroke:#000;stroke-width:11.67px;"/><path d="M617.969,657.529l1.394,-1.434l68.802,66.951l-1.395,1.433l-68.801,-66.95Z" style="stroke:#000;stroke-width:11.67px;"/><path d="M641.778,633.462l1.42,-1.408l67.614,68.149l-1.42,1.409l-67.614,-68.15Z" style="stroke:#000;stroke-width:11.67px;"/><path d="M666.006,609.818l1.445,-1.383l66.406,69.327l-1.445,1.383l-66.406,-69.327Z" style="stroke:#000;stroke-width:11.67px;"/><path d="M690.647,586.604l1.468,-1.358l65.178,70.483l-1.469,1.358l-65.177,-70.483Z" style="stroke:#000;stroke-width:11.67px;"/><path d="M715.692,563.826l1.492,-1.332l63.928,71.618l-1.492,1.332l-63.928,-71.618Z" style="stroke:#000;stroke-width:11.67px;"/><path d="M741.133,541.492l1.515,-1.306l62.66,72.731l-1.516,1.305l-62.659,-72.73Z" style="stroke:#000;stroke-width:11.67px;"/><path d="M766.962,519.608l1.538,-1.279l61.372,73.821l-1.538,1.279l-61.372,-73.821Z" style="stroke:#000;stroke-width:11.67px;"/><path d="M793.173,498.182l1.56,-1.252l60.065,74.889l-1.56,1.251l-60.065,-74.888Z" style="stroke:#000;stroke-width:11.67px;"/><path d="M819.756,477.22l1.582,-1.224l58.739,75.932l-1.582,1.224l-58.739,-75.932Z" style="stroke:#000;stroke-width:11.67px;"/><path d="M846.703,456.728l1.603,-1.196l57.396,76.953l-1.603,1.196l-57.396,-76.953Z" style="stroke:#000;stroke-width:11.67px;"/><path d="M874.006,436.713l1.624,-1.167l56.034,77.949l-1.624,1.168l-56.034,-77.95Z" style="stroke:#000;stroke-width:11.67px;"/><path d="M901.657,417.181l1.645,-1.139l54.655,78.923l-1.644,1.139l-54.656,-78.923Z" style="stroke:#000;stroke-width:11.67px;"/><path d="M929.647,398.138l1.664,-1.11l53.26,79.872l-1.664,1.109l-53.26,-79.871Z" style="stroke:#000;stroke-width:11.67px;"/><path d="M957.968,379.59l1.683,-1.08l51.847,80.795l-1.683,1.08l-51.847,-80.795Z" style="stroke:#000;stroke-width:11.67px;"/><path d="M986.61,361.543l1.702,-1.051l50.419,81.694l-1.702,1.05l-50.419,-81.693Z" style="stroke:#000;stroke-width:11.67px;"/><path d="M1015.56,344.001l1.72,-1.02l48.976,82.568l-1.72,1.02l-48.976,-82.568Z" style="stroke:#000;stroke-width:11.67px;"/><path d="M1044.82,326.972l1.738,-0.99l47.517,83.415l-1.738,0.99l-47.517,-83.415Z" style="stroke:#000;stroke-width:11.67px;"/><path d="M1074.38,310.459l1.755,-0.959l46.044,84.238l-1.755,0.959l-46.044,-84.238Z" style="stroke:#000;stroke-width:11.67px;"/><path d="M1104.21,294.469l1.772,-0.929l44.556,85.034l-1.772,0.929l-44.556,-85.034Z" style="stroke:#000;stroke-width:11.67px;"/><path d="M1134.33,279.005l1.787,-0.897l43.055,85.804l-1.788,0.897l-43.054,-85.804Z" style="stroke:#000;stroke-width:11.67px;"/><path d="M1164.71,264.073l1.803,-0.865l41.54,86.547l-1.803,0.865l-41.54,-86.547Z" style="stroke:#000;stroke-width:11.67px;"/><path d="M1195.35,249.677l1.818,-0.833l40.012,87.264l-1.818,0.834l-40.012,-87.265Z" style="stroke:#000;stroke-width:11.67px;"/><path d="M1226.24,235.822l1.833,-0.801l38.472,87.954l-1.833,0.801l-38.472,-87.954Z" style="stroke:#000;stroke-width:11.67px;"/><path d="M1257.37,222.513l1.846,-0.77l36.92,88.617l-1.846,0.769l-36.92,-88.616Z" style="stroke:#000;stroke-width:11.67px;"/><path d="M1288.73,209.752l1.86,-0.737l35.357,89.252l-1.86,0.737l-35.357,-89.252Z" style="stroke:#000;stroke-width:11.67px;"/><path d="M1320.3,197.544l1.873,-0.704l33.782,89.86l-1.872,0.704l-33.783,-89.86Z" style="stroke:#000;stroke-width:11.67px;"/><path d="M1352.09,185.894l1.884,-0.671l32.198,90.439l-1.884,0.671l-32.198,-90.439Z" style="stroke:#000;stroke-width:11.67px;"/><path d="M1384.07,174.803l1.895,-0.637l30.604,90.991l-1.896,0.638l-30.603,-90.992Z" style="stroke:#000;stroke-width:11.67px;"/><path d="M1416.25,164.277l1.907,-0.604l28.999,91.515l-1.906,0.604l-29,-91.515Z" style="stroke:#000;stroke-width:11.67px;"/><path d="M1448.61,154.318l1.917,-0.571l27.386,92.011l-1.917,0.571l-27.386,-92.011Z" style="stroke:#000;stroke-width:11.67px;"/><path d="M1481.13,144.929l1.926,-0.537l25.765,92.478l-1.927,0.537l-25.764,-92.478Z" style="stroke:#000;stroke-width:11.67px;"/><path d="M1513.82,136.113l1.936,-0.503l24.135,92.917l-1.935,0.503l-24.136,-92.917Z" style="stroke:#000;stroke-width:11.67px;"/><path d="M1546.65,127.873l1.944,-0.468l22.499,93.326l-1.945,0.469l-22.498,-93.327Z" style="stroke:#000;stroke-width:11.67px;"/><path d="M1579.63,120.212l1.952,-0.435l20.855,93.708l-1.952,0.434l-20.855,-93.707Z" style="stroke:#000;stroke-width:11.67px;"/><path d="M1612.73,113.131l1.959,-0.4l19.205,94.06l-1.96,0.4l-19.204,-94.06Z" style="stroke:#000;stroke-width:11.67px;"/><path d="M1645.96,106.633l1.966,-0.365l17.549,94.382l-1.967,0.366l-17.548,-94.383Z" style="stroke:#000;stroke-width:11.67px;"/><path d="M1679.29,100.721l1.973,-0.331l15.886,94.676l-1.972,0.331l-15.887,-94.676Z" style="stroke:#000;stroke-width:11.67px;"/><path d="M1712.72,95.395l1.978,-0.297l14.22,94.941l-1.977,0.297l-14.221,-94.941Z" style="stroke:#000;stroke-width:11.67px;"/><path d="M1746.24,90.657l1.983,-0.261l12.549,95.176l-1.983,0.261l-12.549,-95.176Z" style="stroke:#000;stroke-width:11.67px;"/><path d="M1779.84,86.509l1.987,-0.226l10.874,95.382l-1.987,0.227l-10.874,-95.383Z" style="stroke:#000;stroke-width:11.67px;"/><path d="M1813.51,82.953l1.991,-0.192l9.196,95.559l-1.991,0.191l-9.196,-95.558Z" style="stroke:#000;stroke-width:11.67px;"/><path d="M1847.23,79.989l1.993,-0.157l7.516,95.706l-1.994,0.156l-7.515,-95.705Z" style="stroke:#000;stroke-width:11.67px;"/><path d="M1881,77.618l1.996,-0.122l5.832,95.823l-1.996,0.122l-5.832,-95.823Z" style="stroke:#000;stroke-width:11.67px;"/><path d="M1914.81,75.841l1.998,-0.087l4.147,95.911l-1.998,0.086l-4.147,-95.91Z" style="stroke:#000;stroke-width:11.67px;"/><path d="M1948.64,74.658l1.999,-0.051l2.461,95.968l-2,0.052l-2.46,-95.969Z" style="stroke:#000;stroke-width:11.67px;"/></svg>